%TF.GenerationSoftware,KiCad,Pcbnew,9.0.7-9.0.7~ubuntu24.04.1*%
%TF.CreationDate,2026-01-27T10:33:45-05:00*%
%TF.ProjectId,battery-charging-experimentation,62617474-6572-4792-9d63-68617267696e,rev?*%
%TF.SameCoordinates,Original*%
%TF.FileFunction,Legend,Top*%
%TF.FilePolarity,Positive*%
%FSLAX46Y46*%
G04 Gerber Fmt 4.6, Leading zero omitted, Abs format (unit mm)*
G04 Created by KiCad (PCBNEW 9.0.7-9.0.7~ubuntu24.04.1) date 2026-01-27 10:33:45*
%MOMM*%
%LPD*%
G01*
G04 APERTURE LIST*
%ADD10C,0.100000*%
%ADD11C,0.150000*%
%ADD12C,0.200000*%
%ADD13C,0.120000*%
%ADD14C,0.250000*%
G04 APERTURE END LIST*
D10*
X89013884Y-50241466D02*
X89775789Y-50241466D01*
X89013884Y-52991466D02*
X89775789Y-52991466D01*
X89394836Y-53372419D02*
X89394836Y-52610514D01*
X89013884Y-57741466D02*
X89775789Y-57741466D01*
X89013884Y-60241466D02*
X89775789Y-60241466D01*
X89394836Y-60622419D02*
X89394836Y-59860514D01*
D11*
X58931009Y-68702857D02*
X58931009Y-68369524D01*
X59454819Y-68226667D02*
X59454819Y-68702857D01*
X59454819Y-68702857D02*
X58454819Y-68702857D01*
X58454819Y-68702857D02*
X58454819Y-68226667D01*
X59454819Y-67893333D02*
X58788152Y-67369524D01*
X58788152Y-67893333D02*
X59454819Y-67369524D01*
X58788152Y-67131428D02*
X58788152Y-66750476D01*
X58454819Y-66988571D02*
X59311961Y-66988571D01*
X59311961Y-66988571D02*
X59407200Y-66940952D01*
X59407200Y-66940952D02*
X59454819Y-66845714D01*
X59454819Y-66845714D02*
X59454819Y-66750476D01*
X59454819Y-66417142D02*
X58788152Y-66417142D01*
X58978628Y-66417142D02*
X58883390Y-66369523D01*
X58883390Y-66369523D02*
X58835771Y-66321904D01*
X58835771Y-66321904D02*
X58788152Y-66226666D01*
X58788152Y-66226666D02*
X58788152Y-66131428D01*
X59454819Y-65369523D02*
X58931009Y-65369523D01*
X58931009Y-65369523D02*
X58835771Y-65417142D01*
X58835771Y-65417142D02*
X58788152Y-65512380D01*
X58788152Y-65512380D02*
X58788152Y-65702856D01*
X58788152Y-65702856D02*
X58835771Y-65798094D01*
X59407200Y-65369523D02*
X59454819Y-65464761D01*
X59454819Y-65464761D02*
X59454819Y-65702856D01*
X59454819Y-65702856D02*
X59407200Y-65798094D01*
X59407200Y-65798094D02*
X59311961Y-65845713D01*
X59311961Y-65845713D02*
X59216723Y-65845713D01*
X59216723Y-65845713D02*
X59121485Y-65798094D01*
X59121485Y-65798094D02*
X59073866Y-65702856D01*
X59073866Y-65702856D02*
X59073866Y-65464761D01*
X59073866Y-65464761D02*
X59026247Y-65369523D01*
X59454819Y-64369523D02*
X59454819Y-64940951D01*
X59454819Y-64655237D02*
X58454819Y-64655237D01*
X58454819Y-64655237D02*
X58597676Y-64750475D01*
X58597676Y-64750475D02*
X58692914Y-64845713D01*
X58692914Y-64845713D02*
X58740533Y-64940951D01*
X84661009Y-53677619D02*
X84708628Y-53534762D01*
X84708628Y-53534762D02*
X84756247Y-53487143D01*
X84756247Y-53487143D02*
X84851485Y-53439524D01*
X84851485Y-53439524D02*
X84994342Y-53439524D01*
X84994342Y-53439524D02*
X85089580Y-53487143D01*
X85089580Y-53487143D02*
X85137200Y-53534762D01*
X85137200Y-53534762D02*
X85184819Y-53630000D01*
X85184819Y-53630000D02*
X85184819Y-54010952D01*
X85184819Y-54010952D02*
X84184819Y-54010952D01*
X84184819Y-54010952D02*
X84184819Y-53677619D01*
X84184819Y-53677619D02*
X84232438Y-53582381D01*
X84232438Y-53582381D02*
X84280057Y-53534762D01*
X84280057Y-53534762D02*
X84375295Y-53487143D01*
X84375295Y-53487143D02*
X84470533Y-53487143D01*
X84470533Y-53487143D02*
X84565771Y-53534762D01*
X84565771Y-53534762D02*
X84613390Y-53582381D01*
X84613390Y-53582381D02*
X84661009Y-53677619D01*
X84661009Y-53677619D02*
X84661009Y-54010952D01*
X85184819Y-52582381D02*
X84661009Y-52582381D01*
X84661009Y-52582381D02*
X84565771Y-52630000D01*
X84565771Y-52630000D02*
X84518152Y-52725238D01*
X84518152Y-52725238D02*
X84518152Y-52915714D01*
X84518152Y-52915714D02*
X84565771Y-53010952D01*
X85137200Y-52582381D02*
X85184819Y-52677619D01*
X85184819Y-52677619D02*
X85184819Y-52915714D01*
X85184819Y-52915714D02*
X85137200Y-53010952D01*
X85137200Y-53010952D02*
X85041961Y-53058571D01*
X85041961Y-53058571D02*
X84946723Y-53058571D01*
X84946723Y-53058571D02*
X84851485Y-53010952D01*
X84851485Y-53010952D02*
X84803866Y-52915714D01*
X84803866Y-52915714D02*
X84803866Y-52677619D01*
X84803866Y-52677619D02*
X84756247Y-52582381D01*
X84518152Y-52249047D02*
X84518152Y-51868095D01*
X84184819Y-52106190D02*
X85041961Y-52106190D01*
X85041961Y-52106190D02*
X85137200Y-52058571D01*
X85137200Y-52058571D02*
X85184819Y-51963333D01*
X85184819Y-51963333D02*
X85184819Y-51868095D01*
X84518152Y-51677618D02*
X84518152Y-51296666D01*
X84184819Y-51534761D02*
X85041961Y-51534761D01*
X85041961Y-51534761D02*
X85137200Y-51487142D01*
X85137200Y-51487142D02*
X85184819Y-51391904D01*
X85184819Y-51391904D02*
X85184819Y-51296666D01*
X85137200Y-50582380D02*
X85184819Y-50677618D01*
X85184819Y-50677618D02*
X85184819Y-50868094D01*
X85184819Y-50868094D02*
X85137200Y-50963332D01*
X85137200Y-50963332D02*
X85041961Y-51010951D01*
X85041961Y-51010951D02*
X84661009Y-51010951D01*
X84661009Y-51010951D02*
X84565771Y-50963332D01*
X84565771Y-50963332D02*
X84518152Y-50868094D01*
X84518152Y-50868094D02*
X84518152Y-50677618D01*
X84518152Y-50677618D02*
X84565771Y-50582380D01*
X84565771Y-50582380D02*
X84661009Y-50534761D01*
X84661009Y-50534761D02*
X84756247Y-50534761D01*
X84756247Y-50534761D02*
X84851485Y-51010951D01*
X85184819Y-50106189D02*
X84518152Y-50106189D01*
X84708628Y-50106189D02*
X84613390Y-50058570D01*
X84613390Y-50058570D02*
X84565771Y-50010951D01*
X84565771Y-50010951D02*
X84518152Y-49915713D01*
X84518152Y-49915713D02*
X84518152Y-49820475D01*
X84518152Y-49582379D02*
X85184819Y-49344284D01*
X84518152Y-49106189D02*
X85184819Y-49344284D01*
X85184819Y-49344284D02*
X85422914Y-49439522D01*
X85422914Y-49439522D02*
X85470533Y-49487141D01*
X85470533Y-49487141D02*
X85518152Y-49582379D01*
X85184819Y-48201427D02*
X85184819Y-48772855D01*
X85184819Y-48487141D02*
X84184819Y-48487141D01*
X84184819Y-48487141D02*
X84327676Y-48582379D01*
X84327676Y-48582379D02*
X84422914Y-48677617D01*
X84422914Y-48677617D02*
X84470533Y-48772855D01*
X78333333Y-52704819D02*
X78000000Y-52228628D01*
X77761905Y-52704819D02*
X77761905Y-51704819D01*
X77761905Y-51704819D02*
X78142857Y-51704819D01*
X78142857Y-51704819D02*
X78238095Y-51752438D01*
X78238095Y-51752438D02*
X78285714Y-51800057D01*
X78285714Y-51800057D02*
X78333333Y-51895295D01*
X78333333Y-51895295D02*
X78333333Y-52038152D01*
X78333333Y-52038152D02*
X78285714Y-52133390D01*
X78285714Y-52133390D02*
X78238095Y-52181009D01*
X78238095Y-52181009D02*
X78142857Y-52228628D01*
X78142857Y-52228628D02*
X77761905Y-52228628D01*
X79238095Y-51704819D02*
X78761905Y-51704819D01*
X78761905Y-51704819D02*
X78714286Y-52181009D01*
X78714286Y-52181009D02*
X78761905Y-52133390D01*
X78761905Y-52133390D02*
X78857143Y-52085771D01*
X78857143Y-52085771D02*
X79095238Y-52085771D01*
X79095238Y-52085771D02*
X79190476Y-52133390D01*
X79190476Y-52133390D02*
X79238095Y-52181009D01*
X79238095Y-52181009D02*
X79285714Y-52276247D01*
X79285714Y-52276247D02*
X79285714Y-52514342D01*
X79285714Y-52514342D02*
X79238095Y-52609580D01*
X79238095Y-52609580D02*
X79190476Y-52657200D01*
X79190476Y-52657200D02*
X79095238Y-52704819D01*
X79095238Y-52704819D02*
X78857143Y-52704819D01*
X78857143Y-52704819D02*
X78761905Y-52657200D01*
X78761905Y-52657200D02*
X78714286Y-52609580D01*
X75083333Y-63859580D02*
X75035714Y-63907200D01*
X75035714Y-63907200D02*
X74892857Y-63954819D01*
X74892857Y-63954819D02*
X74797619Y-63954819D01*
X74797619Y-63954819D02*
X74654762Y-63907200D01*
X74654762Y-63907200D02*
X74559524Y-63811961D01*
X74559524Y-63811961D02*
X74511905Y-63716723D01*
X74511905Y-63716723D02*
X74464286Y-63526247D01*
X74464286Y-63526247D02*
X74464286Y-63383390D01*
X74464286Y-63383390D02*
X74511905Y-63192914D01*
X74511905Y-63192914D02*
X74559524Y-63097676D01*
X74559524Y-63097676D02*
X74654762Y-63002438D01*
X74654762Y-63002438D02*
X74797619Y-62954819D01*
X74797619Y-62954819D02*
X74892857Y-62954819D01*
X74892857Y-62954819D02*
X75035714Y-63002438D01*
X75035714Y-63002438D02*
X75083333Y-63050057D01*
X76035714Y-63954819D02*
X75464286Y-63954819D01*
X75750000Y-63954819D02*
X75750000Y-62954819D01*
X75750000Y-62954819D02*
X75654762Y-63097676D01*
X75654762Y-63097676D02*
X75559524Y-63192914D01*
X75559524Y-63192914D02*
X75464286Y-63240533D01*
X66333333Y-66954819D02*
X66000000Y-66478628D01*
X65761905Y-66954819D02*
X65761905Y-65954819D01*
X65761905Y-65954819D02*
X66142857Y-65954819D01*
X66142857Y-65954819D02*
X66238095Y-66002438D01*
X66238095Y-66002438D02*
X66285714Y-66050057D01*
X66285714Y-66050057D02*
X66333333Y-66145295D01*
X66333333Y-66145295D02*
X66333333Y-66288152D01*
X66333333Y-66288152D02*
X66285714Y-66383390D01*
X66285714Y-66383390D02*
X66238095Y-66431009D01*
X66238095Y-66431009D02*
X66142857Y-66478628D01*
X66142857Y-66478628D02*
X65761905Y-66478628D01*
X66714286Y-66050057D02*
X66761905Y-66002438D01*
X66761905Y-66002438D02*
X66857143Y-65954819D01*
X66857143Y-65954819D02*
X67095238Y-65954819D01*
X67095238Y-65954819D02*
X67190476Y-66002438D01*
X67190476Y-66002438D02*
X67238095Y-66050057D01*
X67238095Y-66050057D02*
X67285714Y-66145295D01*
X67285714Y-66145295D02*
X67285714Y-66240533D01*
X67285714Y-66240533D02*
X67238095Y-66383390D01*
X67238095Y-66383390D02*
X66666667Y-66954819D01*
X66666667Y-66954819D02*
X67285714Y-66954819D01*
X63178571Y-54204819D02*
X62845238Y-53728628D01*
X62607143Y-54204819D02*
X62607143Y-53204819D01*
X62607143Y-53204819D02*
X62988095Y-53204819D01*
X62988095Y-53204819D02*
X63083333Y-53252438D01*
X63083333Y-53252438D02*
X63130952Y-53300057D01*
X63130952Y-53300057D02*
X63178571Y-53395295D01*
X63178571Y-53395295D02*
X63178571Y-53538152D01*
X63178571Y-53538152D02*
X63130952Y-53633390D01*
X63130952Y-53633390D02*
X63083333Y-53681009D01*
X63083333Y-53681009D02*
X62988095Y-53728628D01*
X62988095Y-53728628D02*
X62607143Y-53728628D01*
X63369048Y-54300057D02*
X64130952Y-54300057D01*
X64369048Y-54204819D02*
X64369048Y-53204819D01*
X64369048Y-53204819D02*
X64750000Y-53204819D01*
X64750000Y-53204819D02*
X64845238Y-53252438D01*
X64845238Y-53252438D02*
X64892857Y-53300057D01*
X64892857Y-53300057D02*
X64940476Y-53395295D01*
X64940476Y-53395295D02*
X64940476Y-53538152D01*
X64940476Y-53538152D02*
X64892857Y-53633390D01*
X64892857Y-53633390D02*
X64845238Y-53681009D01*
X64845238Y-53681009D02*
X64750000Y-53728628D01*
X64750000Y-53728628D02*
X64369048Y-53728628D01*
X65940476Y-54204819D02*
X65607143Y-53728628D01*
X65369048Y-54204819D02*
X65369048Y-53204819D01*
X65369048Y-53204819D02*
X65750000Y-53204819D01*
X65750000Y-53204819D02*
X65845238Y-53252438D01*
X65845238Y-53252438D02*
X65892857Y-53300057D01*
X65892857Y-53300057D02*
X65940476Y-53395295D01*
X65940476Y-53395295D02*
X65940476Y-53538152D01*
X65940476Y-53538152D02*
X65892857Y-53633390D01*
X65892857Y-53633390D02*
X65845238Y-53681009D01*
X65845238Y-53681009D02*
X65750000Y-53728628D01*
X65750000Y-53728628D02*
X65369048Y-53728628D01*
X66559524Y-53204819D02*
X66750000Y-53204819D01*
X66750000Y-53204819D02*
X66845238Y-53252438D01*
X66845238Y-53252438D02*
X66940476Y-53347676D01*
X66940476Y-53347676D02*
X66988095Y-53538152D01*
X66988095Y-53538152D02*
X66988095Y-53871485D01*
X66988095Y-53871485D02*
X66940476Y-54061961D01*
X66940476Y-54061961D02*
X66845238Y-54157200D01*
X66845238Y-54157200D02*
X66750000Y-54204819D01*
X66750000Y-54204819D02*
X66559524Y-54204819D01*
X66559524Y-54204819D02*
X66464286Y-54157200D01*
X66464286Y-54157200D02*
X66369048Y-54061961D01*
X66369048Y-54061961D02*
X66321429Y-53871485D01*
X66321429Y-53871485D02*
X66321429Y-53538152D01*
X66321429Y-53538152D02*
X66369048Y-53347676D01*
X66369048Y-53347676D02*
X66464286Y-53252438D01*
X66464286Y-53252438D02*
X66559524Y-53204819D01*
X67940476Y-53252438D02*
X67845238Y-53204819D01*
X67845238Y-53204819D02*
X67702381Y-53204819D01*
X67702381Y-53204819D02*
X67559524Y-53252438D01*
X67559524Y-53252438D02*
X67464286Y-53347676D01*
X67464286Y-53347676D02*
X67416667Y-53442914D01*
X67416667Y-53442914D02*
X67369048Y-53633390D01*
X67369048Y-53633390D02*
X67369048Y-53776247D01*
X67369048Y-53776247D02*
X67416667Y-53966723D01*
X67416667Y-53966723D02*
X67464286Y-54061961D01*
X67464286Y-54061961D02*
X67559524Y-54157200D01*
X67559524Y-54157200D02*
X67702381Y-54204819D01*
X67702381Y-54204819D02*
X67797619Y-54204819D01*
X67797619Y-54204819D02*
X67940476Y-54157200D01*
X67940476Y-54157200D02*
X67988095Y-54109580D01*
X67988095Y-54109580D02*
X67988095Y-53776247D01*
X67988095Y-53776247D02*
X67797619Y-53776247D01*
X68940476Y-54204819D02*
X68369048Y-54204819D01*
X68654762Y-54204819D02*
X68654762Y-53204819D01*
X68654762Y-53204819D02*
X68559524Y-53347676D01*
X68559524Y-53347676D02*
X68464286Y-53442914D01*
X68464286Y-53442914D02*
X68369048Y-53490533D01*
X60454819Y-57333333D02*
X61169104Y-57333333D01*
X61169104Y-57333333D02*
X61311961Y-57380952D01*
X61311961Y-57380952D02*
X61407200Y-57476190D01*
X61407200Y-57476190D02*
X61454819Y-57619047D01*
X61454819Y-57619047D02*
X61454819Y-57714285D01*
X61454819Y-56333333D02*
X61454819Y-56904761D01*
X61454819Y-56619047D02*
X60454819Y-56619047D01*
X60454819Y-56619047D02*
X60597676Y-56714285D01*
X60597676Y-56714285D02*
X60692914Y-56809523D01*
X60692914Y-56809523D02*
X60740533Y-56904761D01*
X62952380Y-61804819D02*
X62619047Y-61328628D01*
X62380952Y-61804819D02*
X62380952Y-60804819D01*
X62380952Y-60804819D02*
X62761904Y-60804819D01*
X62761904Y-60804819D02*
X62857142Y-60852438D01*
X62857142Y-60852438D02*
X62904761Y-60900057D01*
X62904761Y-60900057D02*
X62952380Y-60995295D01*
X62952380Y-60995295D02*
X62952380Y-61138152D01*
X62952380Y-61138152D02*
X62904761Y-61233390D01*
X62904761Y-61233390D02*
X62857142Y-61281009D01*
X62857142Y-61281009D02*
X62761904Y-61328628D01*
X62761904Y-61328628D02*
X62380952Y-61328628D01*
X63142857Y-61900057D02*
X63904761Y-61900057D01*
X64714285Y-61709580D02*
X64666666Y-61757200D01*
X64666666Y-61757200D02*
X64523809Y-61804819D01*
X64523809Y-61804819D02*
X64428571Y-61804819D01*
X64428571Y-61804819D02*
X64285714Y-61757200D01*
X64285714Y-61757200D02*
X64190476Y-61661961D01*
X64190476Y-61661961D02*
X64142857Y-61566723D01*
X64142857Y-61566723D02*
X64095238Y-61376247D01*
X64095238Y-61376247D02*
X64095238Y-61233390D01*
X64095238Y-61233390D02*
X64142857Y-61042914D01*
X64142857Y-61042914D02*
X64190476Y-60947676D01*
X64190476Y-60947676D02*
X64285714Y-60852438D01*
X64285714Y-60852438D02*
X64428571Y-60804819D01*
X64428571Y-60804819D02*
X64523809Y-60804819D01*
X64523809Y-60804819D02*
X64666666Y-60852438D01*
X64666666Y-60852438D02*
X64714285Y-60900057D01*
X65714285Y-61709580D02*
X65666666Y-61757200D01*
X65666666Y-61757200D02*
X65523809Y-61804819D01*
X65523809Y-61804819D02*
X65428571Y-61804819D01*
X65428571Y-61804819D02*
X65285714Y-61757200D01*
X65285714Y-61757200D02*
X65190476Y-61661961D01*
X65190476Y-61661961D02*
X65142857Y-61566723D01*
X65142857Y-61566723D02*
X65095238Y-61376247D01*
X65095238Y-61376247D02*
X65095238Y-61233390D01*
X65095238Y-61233390D02*
X65142857Y-61042914D01*
X65142857Y-61042914D02*
X65190476Y-60947676D01*
X65190476Y-60947676D02*
X65285714Y-60852438D01*
X65285714Y-60852438D02*
X65428571Y-60804819D01*
X65428571Y-60804819D02*
X65523809Y-60804819D01*
X65523809Y-60804819D02*
X65666666Y-60852438D01*
X65666666Y-60852438D02*
X65714285Y-60900057D01*
X66095238Y-60900057D02*
X66142857Y-60852438D01*
X66142857Y-60852438D02*
X66238095Y-60804819D01*
X66238095Y-60804819D02*
X66476190Y-60804819D01*
X66476190Y-60804819D02*
X66571428Y-60852438D01*
X66571428Y-60852438D02*
X66619047Y-60900057D01*
X66619047Y-60900057D02*
X66666666Y-60995295D01*
X66666666Y-60995295D02*
X66666666Y-61090533D01*
X66666666Y-61090533D02*
X66619047Y-61233390D01*
X66619047Y-61233390D02*
X66047619Y-61804819D01*
X66047619Y-61804819D02*
X66666666Y-61804819D01*
X83583333Y-65704819D02*
X83250000Y-65228628D01*
X83011905Y-65704819D02*
X83011905Y-64704819D01*
X83011905Y-64704819D02*
X83392857Y-64704819D01*
X83392857Y-64704819D02*
X83488095Y-64752438D01*
X83488095Y-64752438D02*
X83535714Y-64800057D01*
X83535714Y-64800057D02*
X83583333Y-64895295D01*
X83583333Y-64895295D02*
X83583333Y-65038152D01*
X83583333Y-65038152D02*
X83535714Y-65133390D01*
X83535714Y-65133390D02*
X83488095Y-65181009D01*
X83488095Y-65181009D02*
X83392857Y-65228628D01*
X83392857Y-65228628D02*
X83011905Y-65228628D01*
X84440476Y-64704819D02*
X84250000Y-64704819D01*
X84250000Y-64704819D02*
X84154762Y-64752438D01*
X84154762Y-64752438D02*
X84107143Y-64800057D01*
X84107143Y-64800057D02*
X84011905Y-64942914D01*
X84011905Y-64942914D02*
X83964286Y-65133390D01*
X83964286Y-65133390D02*
X83964286Y-65514342D01*
X83964286Y-65514342D02*
X84011905Y-65609580D01*
X84011905Y-65609580D02*
X84059524Y-65657200D01*
X84059524Y-65657200D02*
X84154762Y-65704819D01*
X84154762Y-65704819D02*
X84345238Y-65704819D01*
X84345238Y-65704819D02*
X84440476Y-65657200D01*
X84440476Y-65657200D02*
X84488095Y-65609580D01*
X84488095Y-65609580D02*
X84535714Y-65514342D01*
X84535714Y-65514342D02*
X84535714Y-65276247D01*
X84535714Y-65276247D02*
X84488095Y-65181009D01*
X84488095Y-65181009D02*
X84440476Y-65133390D01*
X84440476Y-65133390D02*
X84345238Y-65085771D01*
X84345238Y-65085771D02*
X84154762Y-65085771D01*
X84154762Y-65085771D02*
X84059524Y-65133390D01*
X84059524Y-65133390D02*
X84011905Y-65181009D01*
X84011905Y-65181009D02*
X83964286Y-65276247D01*
X68011905Y-51204819D02*
X68011905Y-50204819D01*
X68011905Y-50204819D02*
X68250000Y-50204819D01*
X68250000Y-50204819D02*
X68392857Y-50252438D01*
X68392857Y-50252438D02*
X68488095Y-50347676D01*
X68488095Y-50347676D02*
X68535714Y-50442914D01*
X68535714Y-50442914D02*
X68583333Y-50633390D01*
X68583333Y-50633390D02*
X68583333Y-50776247D01*
X68583333Y-50776247D02*
X68535714Y-50966723D01*
X68535714Y-50966723D02*
X68488095Y-51061961D01*
X68488095Y-51061961D02*
X68392857Y-51157200D01*
X68392857Y-51157200D02*
X68250000Y-51204819D01*
X68250000Y-51204819D02*
X68011905Y-51204819D01*
X69535714Y-51204819D02*
X68964286Y-51204819D01*
X69250000Y-51204819D02*
X69250000Y-50204819D01*
X69250000Y-50204819D02*
X69154762Y-50347676D01*
X69154762Y-50347676D02*
X69059524Y-50442914D01*
X69059524Y-50442914D02*
X68964286Y-50490533D01*
X84184819Y-60559523D02*
X84184819Y-60369047D01*
X84184819Y-60369047D02*
X84232438Y-60273809D01*
X84232438Y-60273809D02*
X84327676Y-60178571D01*
X84327676Y-60178571D02*
X84518152Y-60130952D01*
X84518152Y-60130952D02*
X84851485Y-60130952D01*
X84851485Y-60130952D02*
X85041961Y-60178571D01*
X85041961Y-60178571D02*
X85137200Y-60273809D01*
X85137200Y-60273809D02*
X85184819Y-60369047D01*
X85184819Y-60369047D02*
X85184819Y-60559523D01*
X85184819Y-60559523D02*
X85137200Y-60654761D01*
X85137200Y-60654761D02*
X85041961Y-60749999D01*
X85041961Y-60749999D02*
X84851485Y-60797618D01*
X84851485Y-60797618D02*
X84518152Y-60797618D01*
X84518152Y-60797618D02*
X84327676Y-60749999D01*
X84327676Y-60749999D02*
X84232438Y-60654761D01*
X84232438Y-60654761D02*
X84184819Y-60559523D01*
X84518152Y-59273809D02*
X85184819Y-59273809D01*
X84518152Y-59702380D02*
X85041961Y-59702380D01*
X85041961Y-59702380D02*
X85137200Y-59654761D01*
X85137200Y-59654761D02*
X85184819Y-59559523D01*
X85184819Y-59559523D02*
X85184819Y-59416666D01*
X85184819Y-59416666D02*
X85137200Y-59321428D01*
X85137200Y-59321428D02*
X85089580Y-59273809D01*
X84518152Y-58940475D02*
X84518152Y-58559523D01*
X84184819Y-58797618D02*
X85041961Y-58797618D01*
X85041961Y-58797618D02*
X85137200Y-58749999D01*
X85137200Y-58749999D02*
X85184819Y-58654761D01*
X85184819Y-58654761D02*
X85184819Y-58559523D01*
X85184819Y-57702380D02*
X85184819Y-58273808D01*
X85184819Y-57988094D02*
X84184819Y-57988094D01*
X84184819Y-57988094D02*
X84327676Y-58083332D01*
X84327676Y-58083332D02*
X84422914Y-58178570D01*
X84422914Y-58178570D02*
X84470533Y-58273808D01*
X72404761Y-67550057D02*
X72309523Y-67502438D01*
X72309523Y-67502438D02*
X72214285Y-67407200D01*
X72214285Y-67407200D02*
X72071428Y-67264342D01*
X72071428Y-67264342D02*
X71976190Y-67216723D01*
X71976190Y-67216723D02*
X71880952Y-67216723D01*
X71928571Y-67454819D02*
X71833333Y-67407200D01*
X71833333Y-67407200D02*
X71738095Y-67311961D01*
X71738095Y-67311961D02*
X71690476Y-67121485D01*
X71690476Y-67121485D02*
X71690476Y-66788152D01*
X71690476Y-66788152D02*
X71738095Y-66597676D01*
X71738095Y-66597676D02*
X71833333Y-66502438D01*
X71833333Y-66502438D02*
X71928571Y-66454819D01*
X71928571Y-66454819D02*
X72119047Y-66454819D01*
X72119047Y-66454819D02*
X72214285Y-66502438D01*
X72214285Y-66502438D02*
X72309523Y-66597676D01*
X72309523Y-66597676D02*
X72357142Y-66788152D01*
X72357142Y-66788152D02*
X72357142Y-67121485D01*
X72357142Y-67121485D02*
X72309523Y-67311961D01*
X72309523Y-67311961D02*
X72214285Y-67407200D01*
X72214285Y-67407200D02*
X72119047Y-67454819D01*
X72119047Y-67454819D02*
X71928571Y-67454819D01*
X72738095Y-66550057D02*
X72785714Y-66502438D01*
X72785714Y-66502438D02*
X72880952Y-66454819D01*
X72880952Y-66454819D02*
X73119047Y-66454819D01*
X73119047Y-66454819D02*
X73214285Y-66502438D01*
X73214285Y-66502438D02*
X73261904Y-66550057D01*
X73261904Y-66550057D02*
X73309523Y-66645295D01*
X73309523Y-66645295D02*
X73309523Y-66740533D01*
X73309523Y-66740533D02*
X73261904Y-66883390D01*
X73261904Y-66883390D02*
X72690476Y-67454819D01*
X72690476Y-67454819D02*
X73309523Y-67454819D01*
X85204819Y-67988094D02*
X84204819Y-67988094D01*
X84204819Y-67988094D02*
X84204819Y-67749999D01*
X84204819Y-67749999D02*
X84252438Y-67607142D01*
X84252438Y-67607142D02*
X84347676Y-67511904D01*
X84347676Y-67511904D02*
X84442914Y-67464285D01*
X84442914Y-67464285D02*
X84633390Y-67416666D01*
X84633390Y-67416666D02*
X84776247Y-67416666D01*
X84776247Y-67416666D02*
X84966723Y-67464285D01*
X84966723Y-67464285D02*
X85061961Y-67511904D01*
X85061961Y-67511904D02*
X85157200Y-67607142D01*
X85157200Y-67607142D02*
X85204819Y-67749999D01*
X85204819Y-67749999D02*
X85204819Y-67988094D01*
X84204819Y-67083332D02*
X84204819Y-66464285D01*
X84204819Y-66464285D02*
X84585771Y-66797618D01*
X84585771Y-66797618D02*
X84585771Y-66654761D01*
X84585771Y-66654761D02*
X84633390Y-66559523D01*
X84633390Y-66559523D02*
X84681009Y-66511904D01*
X84681009Y-66511904D02*
X84776247Y-66464285D01*
X84776247Y-66464285D02*
X85014342Y-66464285D01*
X85014342Y-66464285D02*
X85109580Y-66511904D01*
X85109580Y-66511904D02*
X85157200Y-66559523D01*
X85157200Y-66559523D02*
X85204819Y-66654761D01*
X85204819Y-66654761D02*
X85204819Y-66940475D01*
X85204819Y-66940475D02*
X85157200Y-67035713D01*
X85157200Y-67035713D02*
X85109580Y-67083332D01*
X77738095Y-56954819D02*
X77738095Y-57764342D01*
X77738095Y-57764342D02*
X77785714Y-57859580D01*
X77785714Y-57859580D02*
X77833333Y-57907200D01*
X77833333Y-57907200D02*
X77928571Y-57954819D01*
X77928571Y-57954819D02*
X78119047Y-57954819D01*
X78119047Y-57954819D02*
X78214285Y-57907200D01*
X78214285Y-57907200D02*
X78261904Y-57859580D01*
X78261904Y-57859580D02*
X78309523Y-57764342D01*
X78309523Y-57764342D02*
X78309523Y-56954819D01*
X78738095Y-57050057D02*
X78785714Y-57002438D01*
X78785714Y-57002438D02*
X78880952Y-56954819D01*
X78880952Y-56954819D02*
X79119047Y-56954819D01*
X79119047Y-56954819D02*
X79214285Y-57002438D01*
X79214285Y-57002438D02*
X79261904Y-57050057D01*
X79261904Y-57050057D02*
X79309523Y-57145295D01*
X79309523Y-57145295D02*
X79309523Y-57240533D01*
X79309523Y-57240533D02*
X79261904Y-57383390D01*
X79261904Y-57383390D02*
X78690476Y-57954819D01*
X78690476Y-57954819D02*
X79309523Y-57954819D01*
X74833333Y-54359580D02*
X74785714Y-54407200D01*
X74785714Y-54407200D02*
X74642857Y-54454819D01*
X74642857Y-54454819D02*
X74547619Y-54454819D01*
X74547619Y-54454819D02*
X74404762Y-54407200D01*
X74404762Y-54407200D02*
X74309524Y-54311961D01*
X74309524Y-54311961D02*
X74261905Y-54216723D01*
X74261905Y-54216723D02*
X74214286Y-54026247D01*
X74214286Y-54026247D02*
X74214286Y-53883390D01*
X74214286Y-53883390D02*
X74261905Y-53692914D01*
X74261905Y-53692914D02*
X74309524Y-53597676D01*
X74309524Y-53597676D02*
X74404762Y-53502438D01*
X74404762Y-53502438D02*
X74547619Y-53454819D01*
X74547619Y-53454819D02*
X74642857Y-53454819D01*
X74642857Y-53454819D02*
X74785714Y-53502438D01*
X74785714Y-53502438D02*
X74833333Y-53550057D01*
X75214286Y-53550057D02*
X75261905Y-53502438D01*
X75261905Y-53502438D02*
X75357143Y-53454819D01*
X75357143Y-53454819D02*
X75595238Y-53454819D01*
X75595238Y-53454819D02*
X75690476Y-53502438D01*
X75690476Y-53502438D02*
X75738095Y-53550057D01*
X75738095Y-53550057D02*
X75785714Y-53645295D01*
X75785714Y-53645295D02*
X75785714Y-53740533D01*
X75785714Y-53740533D02*
X75738095Y-53883390D01*
X75738095Y-53883390D02*
X75166667Y-54454819D01*
X75166667Y-54454819D02*
X75785714Y-54454819D01*
X64083333Y-50204819D02*
X63750000Y-49728628D01*
X63511905Y-50204819D02*
X63511905Y-49204819D01*
X63511905Y-49204819D02*
X63892857Y-49204819D01*
X63892857Y-49204819D02*
X63988095Y-49252438D01*
X63988095Y-49252438D02*
X64035714Y-49300057D01*
X64035714Y-49300057D02*
X64083333Y-49395295D01*
X64083333Y-49395295D02*
X64083333Y-49538152D01*
X64083333Y-49538152D02*
X64035714Y-49633390D01*
X64035714Y-49633390D02*
X63988095Y-49681009D01*
X63988095Y-49681009D02*
X63892857Y-49728628D01*
X63892857Y-49728628D02*
X63511905Y-49728628D01*
X65035714Y-50204819D02*
X64464286Y-50204819D01*
X64750000Y-50204819D02*
X64750000Y-49204819D01*
X64750000Y-49204819D02*
X64654762Y-49347676D01*
X64654762Y-49347676D02*
X64559524Y-49442914D01*
X64559524Y-49442914D02*
X64464286Y-49490533D01*
X62952380Y-57954819D02*
X62619047Y-57478628D01*
X62380952Y-57954819D02*
X62380952Y-56954819D01*
X62380952Y-56954819D02*
X62761904Y-56954819D01*
X62761904Y-56954819D02*
X62857142Y-57002438D01*
X62857142Y-57002438D02*
X62904761Y-57050057D01*
X62904761Y-57050057D02*
X62952380Y-57145295D01*
X62952380Y-57145295D02*
X62952380Y-57288152D01*
X62952380Y-57288152D02*
X62904761Y-57383390D01*
X62904761Y-57383390D02*
X62857142Y-57431009D01*
X62857142Y-57431009D02*
X62761904Y-57478628D01*
X62761904Y-57478628D02*
X62380952Y-57478628D01*
X63142857Y-58050057D02*
X63904761Y-58050057D01*
X64714285Y-57859580D02*
X64666666Y-57907200D01*
X64666666Y-57907200D02*
X64523809Y-57954819D01*
X64523809Y-57954819D02*
X64428571Y-57954819D01*
X64428571Y-57954819D02*
X64285714Y-57907200D01*
X64285714Y-57907200D02*
X64190476Y-57811961D01*
X64190476Y-57811961D02*
X64142857Y-57716723D01*
X64142857Y-57716723D02*
X64095238Y-57526247D01*
X64095238Y-57526247D02*
X64095238Y-57383390D01*
X64095238Y-57383390D02*
X64142857Y-57192914D01*
X64142857Y-57192914D02*
X64190476Y-57097676D01*
X64190476Y-57097676D02*
X64285714Y-57002438D01*
X64285714Y-57002438D02*
X64428571Y-56954819D01*
X64428571Y-56954819D02*
X64523809Y-56954819D01*
X64523809Y-56954819D02*
X64666666Y-57002438D01*
X64666666Y-57002438D02*
X64714285Y-57050057D01*
X65714285Y-57859580D02*
X65666666Y-57907200D01*
X65666666Y-57907200D02*
X65523809Y-57954819D01*
X65523809Y-57954819D02*
X65428571Y-57954819D01*
X65428571Y-57954819D02*
X65285714Y-57907200D01*
X65285714Y-57907200D02*
X65190476Y-57811961D01*
X65190476Y-57811961D02*
X65142857Y-57716723D01*
X65142857Y-57716723D02*
X65095238Y-57526247D01*
X65095238Y-57526247D02*
X65095238Y-57383390D01*
X65095238Y-57383390D02*
X65142857Y-57192914D01*
X65142857Y-57192914D02*
X65190476Y-57097676D01*
X65190476Y-57097676D02*
X65285714Y-57002438D01*
X65285714Y-57002438D02*
X65428571Y-56954819D01*
X65428571Y-56954819D02*
X65523809Y-56954819D01*
X65523809Y-56954819D02*
X65666666Y-57002438D01*
X65666666Y-57002438D02*
X65714285Y-57050057D01*
X66666666Y-57954819D02*
X66095238Y-57954819D01*
X66380952Y-57954819D02*
X66380952Y-56954819D01*
X66380952Y-56954819D02*
X66285714Y-57097676D01*
X66285714Y-57097676D02*
X66190476Y-57192914D01*
X66190476Y-57192914D02*
X66095238Y-57240533D01*
X78404761Y-50800057D02*
X78309523Y-50752438D01*
X78309523Y-50752438D02*
X78214285Y-50657200D01*
X78214285Y-50657200D02*
X78071428Y-50514342D01*
X78071428Y-50514342D02*
X77976190Y-50466723D01*
X77976190Y-50466723D02*
X77880952Y-50466723D01*
X77928571Y-50704819D02*
X77833333Y-50657200D01*
X77833333Y-50657200D02*
X77738095Y-50561961D01*
X77738095Y-50561961D02*
X77690476Y-50371485D01*
X77690476Y-50371485D02*
X77690476Y-50038152D01*
X77690476Y-50038152D02*
X77738095Y-49847676D01*
X77738095Y-49847676D02*
X77833333Y-49752438D01*
X77833333Y-49752438D02*
X77928571Y-49704819D01*
X77928571Y-49704819D02*
X78119047Y-49704819D01*
X78119047Y-49704819D02*
X78214285Y-49752438D01*
X78214285Y-49752438D02*
X78309523Y-49847676D01*
X78309523Y-49847676D02*
X78357142Y-50038152D01*
X78357142Y-50038152D02*
X78357142Y-50371485D01*
X78357142Y-50371485D02*
X78309523Y-50561961D01*
X78309523Y-50561961D02*
X78214285Y-50657200D01*
X78214285Y-50657200D02*
X78119047Y-50704819D01*
X78119047Y-50704819D02*
X77928571Y-50704819D01*
X79309523Y-50704819D02*
X78738095Y-50704819D01*
X79023809Y-50704819D02*
X79023809Y-49704819D01*
X79023809Y-49704819D02*
X78928571Y-49847676D01*
X78928571Y-49847676D02*
X78833333Y-49942914D01*
X78833333Y-49942914D02*
X78738095Y-49990533D01*
X68488095Y-54704819D02*
X68488095Y-55514342D01*
X68488095Y-55514342D02*
X68535714Y-55609580D01*
X68535714Y-55609580D02*
X68583333Y-55657200D01*
X68583333Y-55657200D02*
X68678571Y-55704819D01*
X68678571Y-55704819D02*
X68869047Y-55704819D01*
X68869047Y-55704819D02*
X68964285Y-55657200D01*
X68964285Y-55657200D02*
X69011904Y-55609580D01*
X69011904Y-55609580D02*
X69059523Y-55514342D01*
X69059523Y-55514342D02*
X69059523Y-54704819D01*
X69440476Y-54704819D02*
X70059523Y-54704819D01*
X70059523Y-54704819D02*
X69726190Y-55085771D01*
X69726190Y-55085771D02*
X69869047Y-55085771D01*
X69869047Y-55085771D02*
X69964285Y-55133390D01*
X69964285Y-55133390D02*
X70011904Y-55181009D01*
X70011904Y-55181009D02*
X70059523Y-55276247D01*
X70059523Y-55276247D02*
X70059523Y-55514342D01*
X70059523Y-55514342D02*
X70011904Y-55609580D01*
X70011904Y-55609580D02*
X69964285Y-55657200D01*
X69964285Y-55657200D02*
X69869047Y-55704819D01*
X69869047Y-55704819D02*
X69583333Y-55704819D01*
X69583333Y-55704819D02*
X69488095Y-55657200D01*
X69488095Y-55657200D02*
X69440476Y-55609580D01*
X83758333Y-62153330D02*
X83710714Y-62200950D01*
X83710714Y-62200950D02*
X83567857Y-62248569D01*
X83567857Y-62248569D02*
X83472619Y-62248569D01*
X83472619Y-62248569D02*
X83329762Y-62200950D01*
X83329762Y-62200950D02*
X83234524Y-62105711D01*
X83234524Y-62105711D02*
X83186905Y-62010473D01*
X83186905Y-62010473D02*
X83139286Y-61819997D01*
X83139286Y-61819997D02*
X83139286Y-61677140D01*
X83139286Y-61677140D02*
X83186905Y-61486664D01*
X83186905Y-61486664D02*
X83234524Y-61391426D01*
X83234524Y-61391426D02*
X83329762Y-61296188D01*
X83329762Y-61296188D02*
X83472619Y-61248569D01*
X83472619Y-61248569D02*
X83567857Y-61248569D01*
X83567857Y-61248569D02*
X83710714Y-61296188D01*
X83710714Y-61296188D02*
X83758333Y-61343807D01*
X84091667Y-61248569D02*
X84710714Y-61248569D01*
X84710714Y-61248569D02*
X84377381Y-61629521D01*
X84377381Y-61629521D02*
X84520238Y-61629521D01*
X84520238Y-61629521D02*
X84615476Y-61677140D01*
X84615476Y-61677140D02*
X84663095Y-61724759D01*
X84663095Y-61724759D02*
X84710714Y-61819997D01*
X84710714Y-61819997D02*
X84710714Y-62058092D01*
X84710714Y-62058092D02*
X84663095Y-62153330D01*
X84663095Y-62153330D02*
X84615476Y-62200950D01*
X84615476Y-62200950D02*
X84520238Y-62248569D01*
X84520238Y-62248569D02*
X84234524Y-62248569D01*
X84234524Y-62248569D02*
X84139286Y-62200950D01*
X84139286Y-62200950D02*
X84091667Y-62153330D01*
X72761905Y-50954819D02*
X72761905Y-49954819D01*
X72761905Y-49954819D02*
X73000000Y-49954819D01*
X73000000Y-49954819D02*
X73142857Y-50002438D01*
X73142857Y-50002438D02*
X73238095Y-50097676D01*
X73238095Y-50097676D02*
X73285714Y-50192914D01*
X73285714Y-50192914D02*
X73333333Y-50383390D01*
X73333333Y-50383390D02*
X73333333Y-50526247D01*
X73333333Y-50526247D02*
X73285714Y-50716723D01*
X73285714Y-50716723D02*
X73238095Y-50811961D01*
X73238095Y-50811961D02*
X73142857Y-50907200D01*
X73142857Y-50907200D02*
X73000000Y-50954819D01*
X73000000Y-50954819D02*
X72761905Y-50954819D01*
X73714286Y-50050057D02*
X73761905Y-50002438D01*
X73761905Y-50002438D02*
X73857143Y-49954819D01*
X73857143Y-49954819D02*
X74095238Y-49954819D01*
X74095238Y-49954819D02*
X74190476Y-50002438D01*
X74190476Y-50002438D02*
X74238095Y-50050057D01*
X74238095Y-50050057D02*
X74285714Y-50145295D01*
X74285714Y-50145295D02*
X74285714Y-50240533D01*
X74285714Y-50240533D02*
X74238095Y-50383390D01*
X74238095Y-50383390D02*
X73666667Y-50954819D01*
X73666667Y-50954819D02*
X74285714Y-50954819D01*
D12*
%TO.C,Extra1*%
X58020000Y-69140000D02*
X55480000Y-69140000D01*
X58020000Y-64060000D02*
X58020000Y-69140000D01*
X55480000Y-69140000D02*
X55480000Y-67240000D01*
X55480000Y-64060000D02*
X58020000Y-64060000D01*
X55480000Y-64060000D02*
X55480000Y-67240000D01*
%TO.C,Battery1*%
X85960000Y-48820000D02*
X85960000Y-52000000D01*
X85960000Y-48820000D02*
X88500000Y-48820000D01*
X85960000Y-53900000D02*
X85960000Y-52000000D01*
X88500000Y-48820000D02*
X88500000Y-53900000D01*
X88500000Y-53900000D02*
X85960000Y-53900000D01*
D13*
%TO.C,R5*%
X80477064Y-53015000D02*
X80022936Y-53015000D01*
X80477064Y-54485000D02*
X80022936Y-54485000D01*
%TO.C,C1*%
X72473752Y-62765000D02*
X71951248Y-62765000D01*
X72473752Y-64235000D02*
X71951248Y-64235000D01*
%TO.C,R2*%
X69477064Y-68735000D02*
X69022936Y-68735000D01*
X69477064Y-67265000D02*
X69022936Y-67265000D01*
%TO.C,R_PROG1*%
X64272936Y-54765000D02*
X64727064Y-54765000D01*
X64272936Y-56235000D02*
X64727064Y-56235000D01*
D14*
%TO.C,J1*%
X52400000Y-52530000D02*
X53780000Y-52530000D01*
X52400000Y-61470000D02*
X52400000Y-52530000D01*
X52400000Y-61470000D02*
X53780000Y-61470000D01*
X56220000Y-52530000D02*
X57580000Y-52530000D01*
X56220000Y-61470000D02*
X57580000Y-61470000D01*
X59200000Y-53460000D02*
X59200000Y-53570000D01*
X59200000Y-60430000D02*
X59200000Y-60540000D01*
D13*
%TO.C,R_CC2*%
X64272936Y-62265000D02*
X64727064Y-62265000D01*
X64272936Y-63735000D02*
X64727064Y-63735000D01*
%TO.C,R6*%
X80815000Y-65227064D02*
X80815000Y-64772936D01*
X82285000Y-65227064D02*
X82285000Y-64772936D01*
%TO.C,D1*%
X69790000Y-49225000D02*
X69790000Y-52085000D01*
X69790000Y-52085000D02*
X71710000Y-52085000D01*
X71710000Y-52085000D02*
X71710000Y-49225000D01*
D12*
%TO.C,Out1*%
X88500000Y-61520000D02*
X85960000Y-61520000D01*
X88500000Y-56440000D02*
X88500000Y-61520000D01*
X85960000Y-61520000D02*
X85960000Y-59620000D01*
X85960000Y-56440000D02*
X88500000Y-56440000D01*
X85960000Y-56440000D02*
X85960000Y-59620000D01*
D11*
%TO.C,Q2*%
X74130000Y-65460000D02*
X75890000Y-65460000D01*
X74130000Y-67460000D02*
X74130000Y-66540000D01*
X74130000Y-68540000D02*
X75890000Y-68540000D01*
X75890000Y-65460000D02*
X75890000Y-66510000D01*
X75890000Y-68540000D02*
X75890000Y-67490000D01*
%TO.C,D3*%
X85820000Y-63150000D02*
X85820000Y-68350000D01*
X86070000Y-68340000D02*
X85840000Y-68350000D01*
X88680000Y-63150000D02*
X88680000Y-68350000D01*
X88680000Y-64870000D02*
X85820000Y-64870000D01*
X88680000Y-68350000D02*
X88440000Y-68350000D01*
D13*
%TO.C,U2*%
X79740000Y-56702500D02*
X79790000Y-56702500D01*
X79740000Y-58522500D02*
X79740000Y-56702500D01*
X79790000Y-58522500D02*
X79740000Y-58522500D01*
X82810000Y-56702500D02*
X82860000Y-56702500D01*
X82860000Y-56702500D02*
X82860000Y-58522500D01*
X82860000Y-58522500D02*
X82810000Y-58522500D01*
X83140000Y-56402500D02*
X82810000Y-56162500D01*
X83140000Y-55922500D01*
X83140000Y-56402500D01*
G36*
X83140000Y-56402500D02*
G01*
X82810000Y-56162500D01*
X83140000Y-55922500D01*
X83140000Y-56402500D01*
G37*
%TO.C,C2*%
X71776248Y-53515000D02*
X72298752Y-53515000D01*
X71776248Y-54985000D02*
X72298752Y-54985000D01*
%TO.C,R1*%
X64727064Y-51015000D02*
X64272936Y-51015000D01*
X64727064Y-52485000D02*
X64272936Y-52485000D01*
%TO.C,R_CC1*%
X64272936Y-58515000D02*
X64727064Y-58515000D01*
X64272936Y-59985000D02*
X64727064Y-59985000D01*
%TO.C,Q1*%
X79490000Y-49202500D02*
X79540000Y-49202500D01*
X79490000Y-51022500D02*
X79490000Y-49202500D01*
X79540000Y-51022500D02*
X79490000Y-51022500D01*
X82560000Y-49202500D02*
X82610000Y-49202500D01*
X82610000Y-49202500D02*
X82610000Y-51022500D01*
X82610000Y-51022500D02*
X82560000Y-51022500D01*
X82890000Y-48902500D02*
X82560000Y-48662500D01*
X82890000Y-48422500D01*
X82890000Y-48902500D01*
G36*
X82890000Y-48902500D02*
G01*
X82560000Y-48662500D01*
X82890000Y-48422500D01*
X82890000Y-48902500D01*
G37*
%TO.C,U3*%
X69990000Y-56535000D02*
X74110000Y-56535000D01*
X69990000Y-56630000D02*
X69990000Y-56535000D01*
X69990000Y-61655000D02*
X69990000Y-61560000D01*
X74110000Y-56535000D02*
X74110000Y-56630000D01*
X74110000Y-61560000D02*
X74110000Y-61655000D01*
X74110000Y-61655000D02*
X69990000Y-61655000D01*
X69450000Y-56625000D02*
X69210000Y-56295000D01*
X69690000Y-56295000D01*
X69450000Y-56625000D01*
G36*
X69450000Y-56625000D02*
G01*
X69210000Y-56295000D01*
X69690000Y-56295000D01*
X69450000Y-56625000D01*
G37*
%TO.C,C3*%
X81223752Y-61015000D02*
X80701248Y-61015000D01*
X81223752Y-62485000D02*
X80701248Y-62485000D01*
%TO.C,D2*%
X74540000Y-49250000D02*
X74540000Y-52110000D01*
X74540000Y-52110000D02*
X76460000Y-52110000D01*
X76460000Y-52110000D02*
X76460000Y-49250000D01*
%TD*%
M02*
