%TF.GenerationSoftware,KiCad,Pcbnew,9.0.7-9.0.7~ubuntu24.04.1*%
%TF.CreationDate,2026-01-27T10:33:44-05:00*%
%TF.ProjectId,battery-charging-experimentation,62617474-6572-4792-9d63-68617267696e,rev?*%
%TF.SameCoordinates,Original*%
%TF.FileFunction,Copper,L2,Bot*%
%TF.FilePolarity,Positive*%
%FSLAX46Y46*%
G04 Gerber Fmt 4.6, Leading zero omitted, Abs format (unit mm)*
G04 Created by KiCad (PCBNEW 9.0.7-9.0.7~ubuntu24.04.1) date 2026-01-27 10:33:44*
%MOMM*%
%LPD*%
G01*
G04 APERTURE LIST*
%TA.AperFunction,ComponentPad*%
%ADD10C,2.000000*%
%TD*%
%TA.AperFunction,ComponentPad*%
%ADD11R,2.000000X2.000000*%
%TD*%
%TA.AperFunction,ComponentPad*%
%ADD12O,1.700000X1.000000*%
%TD*%
%TA.AperFunction,HeatsinkPad*%
%ADD13C,0.500000*%
%TD*%
%TA.AperFunction,HeatsinkPad*%
%ADD14R,1.900000X2.900000*%
%TD*%
%TA.AperFunction,ViaPad*%
%ADD15C,1.000000*%
%TD*%
G04 APERTURE END LIST*
D10*
%TO.P,Extra1,2,2*%
%TO.N,unconnected-(Extra1-Pad2)*%
X56750000Y-65330000D03*
D11*
%TO.P,Extra1,1,1*%
%TO.N,unconnected-(Extra1-Pad1)*%
X56750000Y-67870000D03*
%TD*%
%TO.P,Battery1,1,1*%
%TO.N,BATT+*%
X87230000Y-52630000D03*
D10*
%TO.P,Battery1,2,2*%
%TO.N,/Raw Bat -*%
X87230000Y-50090000D03*
%TD*%
D12*
%TO.P,J1,S1,SHIELD*%
%TO.N,GND*%
X58800000Y-52680000D03*
X55000000Y-52680000D03*
X58800000Y-61320000D03*
X55000000Y-61320000D03*
%TD*%
D10*
%TO.P,Out1,2,2*%
%TO.N,GND*%
X87230000Y-57710000D03*
D11*
%TO.P,Out1,1,1*%
%TO.N,/VBUS or BATT+*%
X87230000Y-60250000D03*
%TD*%
D13*
%TO.P,U3,9,EPAD*%
%TO.N,GND*%
X71350000Y-57895000D03*
X71350000Y-59095000D03*
X71350000Y-60295000D03*
D14*
X72050000Y-59095000D03*
D13*
X72750000Y-57895000D03*
X72750000Y-59095000D03*
X72750000Y-60295000D03*
%TD*%
D15*
%TO.N,GND*%
X67000000Y-59250000D03*
X69508884Y-63508884D03*
X74329778Y-55480726D03*
X62036975Y-56286975D03*
X68750000Y-56365000D03*
X78750000Y-49000000D03*
X79802682Y-54830692D03*
X84750000Y-68500000D03*
X67116116Y-62366116D03*
X67000000Y-68000000D03*
%TD*%
%TA.AperFunction,Conductor*%
%TO.N,GND*%
G36*
X89506922Y-48001280D02*
G01*
X89597266Y-48011459D01*
X89624331Y-48017636D01*
X89703540Y-48045352D01*
X89728553Y-48057398D01*
X89799606Y-48102043D01*
X89821313Y-48119355D01*
X89880644Y-48178686D01*
X89897957Y-48200395D01*
X89942600Y-48271444D01*
X89954648Y-48296462D01*
X89982362Y-48375666D01*
X89988540Y-48402735D01*
X89998720Y-48493076D01*
X89999500Y-48506961D01*
X89999500Y-68993038D01*
X89998720Y-69006922D01*
X89998720Y-69006923D01*
X89988540Y-69097264D01*
X89982362Y-69124333D01*
X89954648Y-69203537D01*
X89942600Y-69228555D01*
X89897957Y-69299604D01*
X89880644Y-69321313D01*
X89821313Y-69380644D01*
X89799604Y-69397957D01*
X89728555Y-69442600D01*
X89703537Y-69454648D01*
X89624333Y-69482362D01*
X89597264Y-69488540D01*
X89525151Y-69496666D01*
X89506921Y-69498720D01*
X89493038Y-69499500D01*
X58116819Y-69499500D01*
X58049780Y-69479815D01*
X58004025Y-69427011D01*
X57994081Y-69357853D01*
X58023106Y-69294297D01*
X58042505Y-69276235D01*
X58107546Y-69227546D01*
X58193796Y-69112331D01*
X58244091Y-68977483D01*
X58250500Y-68917873D01*
X58250499Y-66822128D01*
X58244091Y-66762517D01*
X58193796Y-66627669D01*
X58193795Y-66627668D01*
X58193793Y-66627664D01*
X58107547Y-66512455D01*
X58107544Y-66512452D01*
X57992335Y-66426206D01*
X57984546Y-66421953D01*
X57986331Y-66418683D01*
X57944448Y-66387284D01*
X57920078Y-66321803D01*
X57934978Y-66253540D01*
X57943441Y-66240171D01*
X58033343Y-66116433D01*
X58140568Y-65905992D01*
X58213553Y-65681368D01*
X58250500Y-65448097D01*
X58250500Y-65211902D01*
X58213553Y-64978631D01*
X58140566Y-64754003D01*
X58033342Y-64543566D01*
X57894517Y-64352490D01*
X57727510Y-64185483D01*
X57536433Y-64046657D01*
X57325996Y-63939433D01*
X57101368Y-63866446D01*
X56868097Y-63829500D01*
X56868092Y-63829500D01*
X56631908Y-63829500D01*
X56631903Y-63829500D01*
X56398631Y-63866446D01*
X56174003Y-63939433D01*
X55963566Y-64046657D01*
X55854550Y-64125862D01*
X55772490Y-64185483D01*
X55772488Y-64185485D01*
X55772487Y-64185485D01*
X55605485Y-64352487D01*
X55605485Y-64352488D01*
X55605483Y-64352490D01*
X55545862Y-64434550D01*
X55466657Y-64543566D01*
X55359433Y-64754003D01*
X55286446Y-64978631D01*
X55249500Y-65211902D01*
X55249500Y-65448097D01*
X55286446Y-65681368D01*
X55359433Y-65905996D01*
X55466657Y-66116433D01*
X55556549Y-66240158D01*
X55580029Y-66305965D01*
X55564204Y-66374019D01*
X55515255Y-66421589D01*
X55515454Y-66421953D01*
X55514146Y-66422667D01*
X55514098Y-66422714D01*
X55513885Y-66422809D01*
X55507664Y-66426206D01*
X55392455Y-66512452D01*
X55392452Y-66512455D01*
X55306206Y-66627664D01*
X55306202Y-66627671D01*
X55255908Y-66762517D01*
X55249501Y-66822116D01*
X55249501Y-66822123D01*
X55249500Y-66822135D01*
X55249500Y-68917870D01*
X55249501Y-68917876D01*
X55255908Y-68977483D01*
X55306202Y-69112328D01*
X55306206Y-69112335D01*
X55366069Y-69192300D01*
X55392454Y-69227546D01*
X55457492Y-69276234D01*
X55499363Y-69332167D01*
X55504347Y-69401859D01*
X55470862Y-69463182D01*
X55409538Y-69496666D01*
X55383181Y-69499500D01*
X54506963Y-69499500D01*
X54493078Y-69498720D01*
X54489413Y-69498307D01*
X54434672Y-69492138D01*
X54374158Y-69468118D01*
X54142396Y-69294297D01*
X54084060Y-69250545D01*
X54042240Y-69194575D01*
X54041419Y-69192300D01*
X54017637Y-69124333D01*
X54011459Y-69097263D01*
X54001280Y-69006922D01*
X54000500Y-68993038D01*
X54000500Y-62318940D01*
X54020185Y-62251901D01*
X54072989Y-62206146D01*
X54142147Y-62196202D01*
X54171953Y-62204379D01*
X54358310Y-62281570D01*
X54358318Y-62281572D01*
X54551504Y-62319999D01*
X54551508Y-62320000D01*
X54750000Y-62320000D01*
X54750000Y-61570012D01*
X55250000Y-61570012D01*
X55250000Y-62320000D01*
X55448492Y-62320000D01*
X55448495Y-62319999D01*
X55641681Y-62281572D01*
X55641693Y-62281569D01*
X55823671Y-62206192D01*
X55823684Y-62206185D01*
X55987462Y-62096751D01*
X55987466Y-62096748D01*
X56126748Y-61957466D01*
X56126751Y-61957462D01*
X56236185Y-61793684D01*
X56236192Y-61793671D01*
X56311569Y-61611692D01*
X56311569Y-61611690D01*
X56319862Y-61570000D01*
X55399746Y-61570000D01*
X55491607Y-61531950D01*
X55561937Y-61461620D01*
X55599999Y-61369730D01*
X55599999Y-61270270D01*
X55561937Y-61178380D01*
X55491607Y-61108050D01*
X55399746Y-61070000D01*
X56319862Y-61070000D01*
X57480138Y-61070000D01*
X58400254Y-61070000D01*
X58308393Y-61108050D01*
X58238063Y-61178380D01*
X58200001Y-61270270D01*
X58200001Y-61369730D01*
X58238063Y-61461620D01*
X58308393Y-61531950D01*
X58400254Y-61570000D01*
X57480138Y-61570000D01*
X57488430Y-61611690D01*
X57488430Y-61611692D01*
X57563807Y-61793671D01*
X57563814Y-61793684D01*
X57673248Y-61957462D01*
X57673251Y-61957466D01*
X57812533Y-62096748D01*
X57812537Y-62096751D01*
X57976315Y-62206185D01*
X57976328Y-62206192D01*
X58158306Y-62281569D01*
X58158318Y-62281572D01*
X58351504Y-62319999D01*
X58351508Y-62320000D01*
X58550000Y-62320000D01*
X58550000Y-61570012D01*
X59050000Y-61570012D01*
X59050000Y-62320000D01*
X59248492Y-62320000D01*
X59248495Y-62319999D01*
X59441681Y-62281572D01*
X59441693Y-62281569D01*
X59623671Y-62206192D01*
X59623684Y-62206185D01*
X59787462Y-62096751D01*
X59787466Y-62096748D01*
X59926748Y-61957466D01*
X59926751Y-61957462D01*
X60036185Y-61793684D01*
X60036192Y-61793671D01*
X60111569Y-61611692D01*
X60111569Y-61611690D01*
X60119862Y-61570000D01*
X59199746Y-61570000D01*
X59291607Y-61531950D01*
X59361937Y-61461620D01*
X59399999Y-61369730D01*
X59399999Y-61270270D01*
X59361937Y-61178380D01*
X59291607Y-61108050D01*
X59199746Y-61070000D01*
X60119862Y-61070000D01*
X60111569Y-61028309D01*
X60111569Y-61028307D01*
X60036192Y-60846328D01*
X60036185Y-60846315D01*
X59926751Y-60682537D01*
X59926748Y-60682533D01*
X59787466Y-60543251D01*
X59787462Y-60543248D01*
X59623684Y-60433814D01*
X59623671Y-60433807D01*
X59441693Y-60358430D01*
X59441681Y-60358427D01*
X59248495Y-60320000D01*
X59050000Y-60320000D01*
X59050000Y-61069988D01*
X58550000Y-61069988D01*
X58550000Y-60320000D01*
X58351504Y-60320000D01*
X58158318Y-60358427D01*
X58158306Y-60358430D01*
X57976328Y-60433807D01*
X57976315Y-60433814D01*
X57812537Y-60543248D01*
X57812533Y-60543251D01*
X57673251Y-60682533D01*
X57673248Y-60682537D01*
X57563814Y-60846315D01*
X57563807Y-60846328D01*
X57488430Y-61028307D01*
X57488430Y-61028309D01*
X57480138Y-61070000D01*
X56319862Y-61070000D01*
X56311569Y-61028309D01*
X56311569Y-61028307D01*
X56236192Y-60846328D01*
X56236185Y-60846315D01*
X56126751Y-60682537D01*
X56126748Y-60682533D01*
X55987466Y-60543251D01*
X55987462Y-60543248D01*
X55823684Y-60433814D01*
X55823671Y-60433807D01*
X55641693Y-60358430D01*
X55641681Y-60358427D01*
X55448495Y-60320000D01*
X55250000Y-60320000D01*
X55250000Y-61069988D01*
X54750000Y-61069988D01*
X54750000Y-60320000D01*
X54551504Y-60320000D01*
X54358318Y-60358427D01*
X54358306Y-60358430D01*
X54171952Y-60435620D01*
X54102483Y-60443089D01*
X54040004Y-60411813D01*
X54004352Y-60351724D01*
X54000500Y-60321059D01*
X54000500Y-59202135D01*
X85729500Y-59202135D01*
X85729500Y-61297870D01*
X85729501Y-61297876D01*
X85735908Y-61357483D01*
X85786202Y-61492328D01*
X85786206Y-61492335D01*
X85872452Y-61607544D01*
X85872455Y-61607547D01*
X85987664Y-61693793D01*
X85987671Y-61693797D01*
X86122517Y-61744091D01*
X86122516Y-61744091D01*
X86129444Y-61744835D01*
X86182127Y-61750500D01*
X88277872Y-61750499D01*
X88337483Y-61744091D01*
X88472331Y-61693796D01*
X88587546Y-61607546D01*
X88673796Y-61492331D01*
X88724091Y-61357483D01*
X88730500Y-61297873D01*
X88730499Y-59202128D01*
X88724091Y-59142517D01*
X88673796Y-59007669D01*
X88673795Y-59007668D01*
X88673793Y-59007664D01*
X88587547Y-58892455D01*
X88587544Y-58892452D01*
X88472335Y-58806206D01*
X88472328Y-58806202D01*
X88337482Y-58755908D01*
X88337483Y-58755908D01*
X88277883Y-58749501D01*
X88277881Y-58749500D01*
X88277873Y-58749500D01*
X88277864Y-58749500D01*
X86182129Y-58749500D01*
X86182123Y-58749501D01*
X86122516Y-58755908D01*
X85987671Y-58806202D01*
X85987664Y-58806206D01*
X85872455Y-58892452D01*
X85872452Y-58892455D01*
X85786206Y-59007664D01*
X85786202Y-59007671D01*
X85735908Y-59142517D01*
X85729501Y-59202116D01*
X85729501Y-59202123D01*
X85729500Y-59202135D01*
X54000500Y-59202135D01*
X54000500Y-53678940D01*
X54020185Y-53611901D01*
X54072989Y-53566146D01*
X54142147Y-53556202D01*
X54171953Y-53564379D01*
X54358310Y-53641570D01*
X54358318Y-53641572D01*
X54551504Y-53679999D01*
X54551508Y-53680000D01*
X54750000Y-53680000D01*
X54750000Y-52930012D01*
X55250000Y-52930012D01*
X55250000Y-53680000D01*
X55448492Y-53680000D01*
X55448495Y-53679999D01*
X55641681Y-53641572D01*
X55641693Y-53641569D01*
X55823671Y-53566192D01*
X55823684Y-53566185D01*
X55987462Y-53456751D01*
X55987466Y-53456748D01*
X56126748Y-53317466D01*
X56126751Y-53317462D01*
X56236185Y-53153684D01*
X56236192Y-53153671D01*
X56311569Y-52971692D01*
X56311569Y-52971690D01*
X56319862Y-52930000D01*
X55399746Y-52930000D01*
X55491607Y-52891950D01*
X55561937Y-52821620D01*
X55599999Y-52729730D01*
X55599999Y-52630270D01*
X55561937Y-52538380D01*
X55491607Y-52468050D01*
X55399746Y-52430000D01*
X56319862Y-52430000D01*
X57480138Y-52430000D01*
X58400254Y-52430000D01*
X58308393Y-52468050D01*
X58238063Y-52538380D01*
X58200001Y-52630270D01*
X58200001Y-52729730D01*
X58238063Y-52821620D01*
X58308393Y-52891950D01*
X58400254Y-52930000D01*
X57480138Y-52930000D01*
X57488430Y-52971690D01*
X57488430Y-52971692D01*
X57563807Y-53153671D01*
X57563814Y-53153684D01*
X57673248Y-53317462D01*
X57673251Y-53317466D01*
X57812533Y-53456748D01*
X57812537Y-53456751D01*
X57976315Y-53566185D01*
X57976328Y-53566192D01*
X58158306Y-53641569D01*
X58158318Y-53641572D01*
X58351504Y-53679999D01*
X58351508Y-53680000D01*
X58550000Y-53680000D01*
X58550000Y-52930012D01*
X59050000Y-52930012D01*
X59050000Y-53680000D01*
X59248492Y-53680000D01*
X59248495Y-53679999D01*
X59441681Y-53641572D01*
X59441693Y-53641569D01*
X59623671Y-53566192D01*
X59623684Y-53566185D01*
X59787462Y-53456751D01*
X59787466Y-53456748D01*
X59926748Y-53317466D01*
X59926751Y-53317462D01*
X60036185Y-53153684D01*
X60036192Y-53153671D01*
X60111569Y-52971692D01*
X60111569Y-52971690D01*
X60119862Y-52930000D01*
X59199746Y-52930000D01*
X59291607Y-52891950D01*
X59361937Y-52821620D01*
X59399999Y-52729730D01*
X59399999Y-52630270D01*
X59361937Y-52538380D01*
X59291607Y-52468050D01*
X59199746Y-52430000D01*
X60119862Y-52430000D01*
X60111569Y-52388309D01*
X60111569Y-52388307D01*
X60036192Y-52206328D01*
X60036185Y-52206315D01*
X59926751Y-52042537D01*
X59926748Y-52042533D01*
X59787466Y-51903251D01*
X59787462Y-51903248D01*
X59623684Y-51793814D01*
X59623671Y-51793807D01*
X59441693Y-51718430D01*
X59441681Y-51718427D01*
X59248495Y-51680000D01*
X59050000Y-51680000D01*
X59050000Y-52429988D01*
X58550000Y-52429988D01*
X58550000Y-51680000D01*
X58351504Y-51680000D01*
X58158318Y-51718427D01*
X58158306Y-51718430D01*
X57976328Y-51793807D01*
X57976315Y-51793814D01*
X57812537Y-51903248D01*
X57812533Y-51903251D01*
X57673251Y-52042533D01*
X57673248Y-52042537D01*
X57563814Y-52206315D01*
X57563807Y-52206328D01*
X57488430Y-52388307D01*
X57488430Y-52388309D01*
X57480138Y-52430000D01*
X56319862Y-52430000D01*
X56311569Y-52388309D01*
X56311569Y-52388307D01*
X56236192Y-52206328D01*
X56236185Y-52206315D01*
X56126751Y-52042537D01*
X56126748Y-52042533D01*
X55987466Y-51903251D01*
X55987462Y-51903248D01*
X55823684Y-51793814D01*
X55823671Y-51793807D01*
X55641693Y-51718430D01*
X55641681Y-51718427D01*
X55448495Y-51680000D01*
X55250000Y-51680000D01*
X55250000Y-52429988D01*
X54750000Y-52429988D01*
X54750000Y-51680000D01*
X54551504Y-51680000D01*
X54358318Y-51718427D01*
X54358306Y-51718430D01*
X54171952Y-51795620D01*
X54102483Y-51803089D01*
X54040004Y-51771813D01*
X54004352Y-51711724D01*
X54000500Y-51681059D01*
X54000500Y-49971902D01*
X85729500Y-49971902D01*
X85729500Y-50208097D01*
X85766446Y-50441368D01*
X85839433Y-50665996D01*
X85946657Y-50876433D01*
X86036549Y-51000158D01*
X86060029Y-51065965D01*
X86044204Y-51134019D01*
X85995255Y-51181589D01*
X85995454Y-51181953D01*
X85994146Y-51182667D01*
X85994098Y-51182714D01*
X85993885Y-51182809D01*
X85987664Y-51186206D01*
X85872455Y-51272452D01*
X85872452Y-51272455D01*
X85786206Y-51387664D01*
X85786202Y-51387671D01*
X85735908Y-51522517D01*
X85729501Y-51582116D01*
X85729501Y-51582123D01*
X85729500Y-51582135D01*
X85729500Y-53677870D01*
X85729501Y-53677876D01*
X85735908Y-53737483D01*
X85786202Y-53872328D01*
X85786206Y-53872335D01*
X85872452Y-53987544D01*
X85872455Y-53987547D01*
X85987664Y-54073793D01*
X85987671Y-54073797D01*
X86122517Y-54124091D01*
X86122516Y-54124091D01*
X86129444Y-54124835D01*
X86182127Y-54130500D01*
X88277872Y-54130499D01*
X88337483Y-54124091D01*
X88472331Y-54073796D01*
X88587546Y-53987546D01*
X88673796Y-53872331D01*
X88724091Y-53737483D01*
X88730500Y-53677873D01*
X88730499Y-51582128D01*
X88724091Y-51522517D01*
X88673796Y-51387669D01*
X88673795Y-51387668D01*
X88673793Y-51387664D01*
X88587547Y-51272455D01*
X88587544Y-51272452D01*
X88472335Y-51186206D01*
X88464546Y-51181953D01*
X88466331Y-51178683D01*
X88424448Y-51147284D01*
X88400078Y-51081803D01*
X88414978Y-51013540D01*
X88423441Y-51000171D01*
X88513343Y-50876433D01*
X88620568Y-50665992D01*
X88693553Y-50441368D01*
X88730500Y-50208097D01*
X88730500Y-49971902D01*
X88693553Y-49738631D01*
X88620566Y-49514003D01*
X88513342Y-49303566D01*
X88374517Y-49112490D01*
X88207510Y-48945483D01*
X88016433Y-48806657D01*
X87805996Y-48699433D01*
X87581368Y-48626446D01*
X87348097Y-48589500D01*
X87348092Y-48589500D01*
X87111908Y-48589500D01*
X87111903Y-48589500D01*
X86878631Y-48626446D01*
X86654003Y-48699433D01*
X86443566Y-48806657D01*
X86334550Y-48885862D01*
X86252490Y-48945483D01*
X86252488Y-48945485D01*
X86252487Y-48945485D01*
X86085485Y-49112487D01*
X86085485Y-49112488D01*
X86085483Y-49112490D01*
X86025862Y-49194550D01*
X85946657Y-49303566D01*
X85839433Y-49514003D01*
X85766446Y-49738631D01*
X85729500Y-49971902D01*
X54000500Y-49971902D01*
X54000500Y-48696774D01*
X54020185Y-48629735D01*
X54058509Y-48591792D01*
X54810117Y-48119355D01*
X54968951Y-48019517D01*
X55034940Y-48000500D01*
X89434108Y-48000500D01*
X89493038Y-48000500D01*
X89506922Y-48001280D01*
G37*
%TD.AperFunction*%
%TD*%
M02*
