%TF.GenerationSoftware,KiCad,Pcbnew,9.0.7-9.0.7~ubuntu24.04.1*%
%TF.CreationDate,2026-01-27T10:33:44-05:00*%
%TF.ProjectId,battery-charging-experimentation,62617474-6572-4792-9d63-68617267696e,rev?*%
%TF.SameCoordinates,Original*%
%TF.FileFunction,Copper,L1,Top*%
%TF.FilePolarity,Positive*%
%FSLAX46Y46*%
G04 Gerber Fmt 4.6, Leading zero omitted, Abs format (unit mm)*
G04 Created by KiCad (PCBNEW 9.0.7-9.0.7~ubuntu24.04.1) date 2026-01-27 10:33:44*
%MOMM*%
%LPD*%
G01*
G04 APERTURE LIST*
G04 Aperture macros list*
%AMRoundRect*
0 Rectangle with rounded corners*
0 $1 Rounding radius*
0 $2 $3 $4 $5 $6 $7 $8 $9 X,Y pos of 4 corners*
0 Add a 4 corners polygon primitive as box body*
4,1,4,$2,$3,$4,$5,$6,$7,$8,$9,$2,$3,0*
0 Add four circle primitives for the rounded corners*
1,1,$1+$1,$2,$3*
1,1,$1+$1,$4,$5*
1,1,$1+$1,$6,$7*
1,1,$1+$1,$8,$9*
0 Add four rect primitives between the rounded corners*
20,1,$1+$1,$2,$3,$4,$5,0*
20,1,$1+$1,$4,$5,$6,$7,0*
20,1,$1+$1,$6,$7,$8,$9,0*
20,1,$1+$1,$8,$9,$2,$3,0*%
G04 Aperture macros list end*
%TA.AperFunction,ComponentPad*%
%ADD10C,2.000000*%
%TD*%
%TA.AperFunction,ComponentPad*%
%ADD11R,2.000000X2.000000*%
%TD*%
%TA.AperFunction,SMDPad,CuDef*%
%ADD12RoundRect,0.250000X0.350000X0.450000X-0.350000X0.450000X-0.350000X-0.450000X0.350000X-0.450000X0*%
%TD*%
%TA.AperFunction,SMDPad,CuDef*%
%ADD13RoundRect,0.250000X0.337500X0.475000X-0.337500X0.475000X-0.337500X-0.475000X0.337500X-0.475000X0*%
%TD*%
%TA.AperFunction,SMDPad,CuDef*%
%ADD14RoundRect,0.250000X-0.350000X-0.450000X0.350000X-0.450000X0.350000X0.450000X-0.350000X0.450000X0*%
%TD*%
%TA.AperFunction,SMDPad,CuDef*%
%ADD15R,1.400000X0.800000*%
%TD*%
%TA.AperFunction,ComponentPad*%
%ADD16O,1.700000X1.000000*%
%TD*%
%TA.AperFunction,SMDPad,CuDef*%
%ADD17RoundRect,0.250000X0.450000X-0.350000X0.450000X0.350000X-0.450000X0.350000X-0.450000X-0.350000X0*%
%TD*%
%TA.AperFunction,SMDPad,CuDef*%
%ADD18RoundRect,0.250000X0.450000X-0.325000X0.450000X0.325000X-0.450000X0.325000X-0.450000X-0.325000X0*%
%TD*%
%TA.AperFunction,SMDPad,CuDef*%
%ADD19R,1.070000X0.600000*%
%TD*%
%TA.AperFunction,SMDPad,CuDef*%
%ADD20R,2.000000X2.000000*%
%TD*%
%TA.AperFunction,SMDPad,CuDef*%
%ADD21RoundRect,0.150000X-0.150000X0.512500X-0.150000X-0.512500X0.150000X-0.512500X0.150000X0.512500X0*%
%TD*%
%TA.AperFunction,SMDPad,CuDef*%
%ADD22RoundRect,0.250000X-0.337500X-0.475000X0.337500X-0.475000X0.337500X0.475000X-0.337500X0.475000X0*%
%TD*%
%TA.AperFunction,SMDPad,CuDef*%
%ADD23RoundRect,0.150000X-0.825000X-0.150000X0.825000X-0.150000X0.825000X0.150000X-0.825000X0.150000X0*%
%TD*%
%TA.AperFunction,HeatsinkPad*%
%ADD24C,0.500000*%
%TD*%
%TA.AperFunction,HeatsinkPad*%
%ADD25R,2.410000X3.300000*%
%TD*%
%TA.AperFunction,ViaPad*%
%ADD26C,1.000000*%
%TD*%
%TA.AperFunction,Conductor*%
%ADD27C,1.000000*%
%TD*%
%TA.AperFunction,Conductor*%
%ADD28C,0.400000*%
%TD*%
%TA.AperFunction,Conductor*%
%ADD29C,0.500000*%
%TD*%
%TA.AperFunction,Conductor*%
%ADD30C,0.250000*%
%TD*%
G04 APERTURE END LIST*
D10*
%TO.P,Extra1,2,2*%
%TO.N,unconnected-(Extra1-Pad2)*%
X56750000Y-65330000D03*
D11*
%TO.P,Extra1,1,1*%
%TO.N,unconnected-(Extra1-Pad1)*%
X56750000Y-67870000D03*
%TD*%
%TO.P,Battery1,1,1*%
%TO.N,BATT+*%
X87230000Y-52630000D03*
D10*
%TO.P,Battery1,2,2*%
%TO.N,/Raw Bat -*%
X87230000Y-50090000D03*
%TD*%
D12*
%TO.P,R5,1*%
%TO.N,Net-(U2-CSI)*%
X81250000Y-53750000D03*
%TO.P,R5,2*%
%TO.N,GND*%
X79250000Y-53750000D03*
%TD*%
D13*
%TO.P,C1,1*%
%TO.N,BATT+*%
X73250000Y-63500000D03*
%TO.P,C1,2*%
%TO.N,GND*%
X71175000Y-63500000D03*
%TD*%
D12*
%TO.P,R2,1*%
%TO.N,/VBUS*%
X70250000Y-68000000D03*
%TO.P,R2,2*%
%TO.N,GND*%
X68250000Y-68000000D03*
%TD*%
D14*
%TO.P,R_PROG1,1*%
%TO.N,GND*%
X63500000Y-55500000D03*
%TO.P,R_PROG1,2*%
%TO.N,Net-(U3-PROG)*%
X65500000Y-55500000D03*
%TD*%
D15*
%TO.P,J1,A5,CC1*%
%TO.N,Net-(J1-CC1)*%
X58900000Y-56500000D03*
%TO.P,J1,A9,VBUS*%
%TO.N,/VBUS*%
X58900000Y-58520000D03*
%TO.P,J1,A12,GND*%
%TO.N,GND*%
X58900000Y-59750000D03*
%TO.P,J1,B5,CC2*%
%TO.N,Net-(J1-CC2)*%
X58900000Y-57500000D03*
%TO.P,J1,B9,VBUS*%
%TO.N,/VBUS*%
X58900000Y-55480000D03*
%TO.P,J1,B12,GND*%
%TO.N,GND*%
X58900000Y-54250000D03*
D16*
%TO.P,J1,S1,SHIELD*%
X58800000Y-52680000D03*
X55000000Y-52680000D03*
X58800000Y-61320000D03*
X55000000Y-61320000D03*
%TD*%
D14*
%TO.P,R_CC2,1*%
%TO.N,Net-(J1-CC2)*%
X63500000Y-63000000D03*
%TO.P,R_CC2,2*%
%TO.N,GND*%
X65500000Y-63000000D03*
%TD*%
D17*
%TO.P,R6,1*%
%TO.N,BATT+*%
X81550000Y-66000000D03*
%TO.P,R6,2*%
%TO.N,Net-(U2-VDD)*%
X81550000Y-64000000D03*
%TD*%
D18*
%TO.P,D1,1,K*%
%TO.N,Net-(D1-K)*%
X70750000Y-51250000D03*
%TO.P,D1,2,A*%
%TO.N,Net-(D1-A)*%
X70750000Y-49200000D03*
%TD*%
D10*
%TO.P,Out1,2,2*%
%TO.N,GND*%
X87230000Y-57710000D03*
D11*
%TO.P,Out1,1,1*%
%TO.N,/VBUS or BATT+*%
X87230000Y-60250000D03*
%TD*%
D19*
%TO.P,Q2,1,G*%
%TO.N,/VBUS*%
X73770000Y-66050000D03*
%TO.P,Q2,2,S*%
%TO.N,/VBUS or BATT+*%
X73770000Y-67950000D03*
%TO.P,Q2,3,D*%
%TO.N,BATT+*%
X76250000Y-67000000D03*
%TD*%
D20*
%TO.P,D3,1,K*%
%TO.N,/VBUS or BATT+*%
X87250000Y-63550000D03*
%TO.P,D3,2,A*%
%TO.N,GND*%
X87250000Y-67950000D03*
%TD*%
D21*
%TO.P,U2,1,OD*%
%TO.N,/Discharge control*%
X82250000Y-56475000D03*
%TO.P,U2,2,CSI*%
%TO.N,Net-(U2-CSI)*%
X81300000Y-56475000D03*
%TO.P,U2,3,OC*%
%TO.N,/Charge control*%
X80350000Y-56475000D03*
%TO.P,U2,4,TD*%
%TO.N,unconnected-(U2-TD-Pad4)*%
X80350000Y-58750000D03*
%TO.P,U2,5,VDD*%
%TO.N,Net-(U2-VDD)*%
X81300000Y-58750000D03*
%TO.P,U2,6,VSS*%
%TO.N,/Raw Bat -*%
X82250000Y-58750000D03*
%TD*%
D22*
%TO.P,C2,1*%
%TO.N,/VBUS*%
X71000000Y-54250000D03*
%TO.P,C2,2*%
%TO.N,GND*%
X73075000Y-54250000D03*
%TD*%
D12*
%TO.P,R1,1*%
%TO.N,Net-(D1-A)*%
X65500000Y-51750000D03*
%TO.P,R1,2*%
%TO.N,/VBUS*%
X63500000Y-51750000D03*
%TD*%
D14*
%TO.P,R_CC1,1*%
%TO.N,Net-(J1-CC1)*%
X63500000Y-59250000D03*
%TO.P,R_CC1,2*%
%TO.N,GND*%
X65500000Y-59250000D03*
%TD*%
D21*
%TO.P,Q1,1,D*%
%TO.N,/Raw Bat -*%
X82000000Y-48975000D03*
%TO.P,Q1,2,S*%
%TO.N,Net-(Q1A-S)*%
X81050000Y-48975000D03*
%TO.P,Q1,3,D*%
%TO.N,GND*%
X80100000Y-48975000D03*
%TO.P,Q1,4,G*%
%TO.N,/Charge control*%
X80100000Y-51250000D03*
%TO.P,Q1,5,S*%
%TO.N,Net-(Q1A-S)*%
X81050000Y-51250000D03*
%TO.P,Q1,6,G*%
%TO.N,/Discharge control*%
X82000000Y-51250000D03*
%TD*%
D23*
%TO.P,U3,1,TEMP*%
%TO.N,GND*%
X69575000Y-57190000D03*
%TO.P,U3,2,PROG*%
%TO.N,Net-(U3-PROG)*%
X69575000Y-58460000D03*
%TO.P,U3,3,GND*%
%TO.N,GND*%
X69575000Y-59730000D03*
%TO.P,U3,4,V_{CC}*%
%TO.N,/VBUS*%
X69575000Y-61000000D03*
%TO.P,U3,5,BAT*%
%TO.N,BATT+*%
X74525000Y-61000000D03*
%TO.P,U3,6,~{STDBY}*%
%TO.N,Net-(D2-K)*%
X74525000Y-59730000D03*
%TO.P,U3,7,~{CHRG}*%
%TO.N,Net-(D1-K)*%
X74525000Y-58460000D03*
%TO.P,U3,8,CE*%
%TO.N,/VBUS*%
X74525000Y-57190000D03*
D24*
%TO.P,U3,9,EPAD*%
%TO.N,GND*%
X71350000Y-57895000D03*
X71350000Y-59095000D03*
X71350000Y-60295000D03*
D25*
X72050000Y-59095000D03*
D24*
X72750000Y-57895000D03*
X72750000Y-59095000D03*
X72750000Y-60295000D03*
%TD*%
D13*
%TO.P,C3,1*%
%TO.N,/Raw Bat -*%
X82000000Y-61750000D03*
%TO.P,C3,2*%
%TO.N,Net-(U2-VDD)*%
X79925000Y-61750000D03*
%TD*%
D18*
%TO.P,D2,1,K*%
%TO.N,Net-(D2-K)*%
X75500000Y-51275000D03*
%TO.P,D2,2,A*%
%TO.N,Net-(D1-A)*%
X75500000Y-49225000D03*
%TD*%
D26*
%TO.N,GND*%
X67000000Y-59250000D03*
X69508884Y-63508884D03*
X74329778Y-55480726D03*
X62036975Y-56286975D03*
X68750000Y-56365000D03*
X78750000Y-49000000D03*
X79802682Y-54830692D03*
X84750000Y-68500000D03*
X67116116Y-62366116D03*
X67000000Y-68000000D03*
%TD*%
D27*
%TO.N,/VBUS*%
X73770000Y-66050000D02*
X70250000Y-66050000D01*
X70250000Y-68000000D02*
X70250000Y-66050000D01*
%TO.N,GND*%
X87250000Y-67950000D02*
X85300000Y-67950000D01*
X85300000Y-67950000D02*
X84750000Y-68500000D01*
%TO.N,/VBUS or BATT+*%
X73770000Y-67950000D02*
X74320000Y-68500000D01*
X74320000Y-68500000D02*
X82250000Y-68500000D01*
X82250000Y-68500000D02*
X87200000Y-63550000D01*
X87200000Y-63550000D02*
X87250000Y-63550000D01*
%TO.N,BATT+*%
X81550000Y-66000000D02*
X82250000Y-66000000D01*
X82250000Y-66000000D02*
X85250000Y-63000000D01*
X85250000Y-63000000D02*
X85250000Y-54610000D01*
X85250000Y-54610000D02*
X87230000Y-52630000D01*
%TO.N,/Raw Bat -*%
X82601000Y-58750000D02*
X83750000Y-57601000D01*
X83750000Y-57601000D02*
X83750000Y-49750000D01*
X87230000Y-50090000D02*
X84090000Y-50090000D01*
X84090000Y-50090000D02*
X83750000Y-49750000D01*
X83750000Y-49750000D02*
X82975000Y-48975000D01*
X82975000Y-48975000D02*
X82351000Y-48975000D01*
%TO.N,/VBUS or BATT+*%
X87230000Y-60250000D02*
X87230000Y-63530000D01*
X87230000Y-63530000D02*
X87250000Y-63550000D01*
%TO.N,BATT+*%
X76250000Y-67000000D02*
X79000000Y-64250000D01*
X73250000Y-63500000D02*
X73250000Y-62500000D01*
X80750000Y-66000000D02*
X81550000Y-66000000D01*
X75250000Y-61000000D02*
X75750000Y-61000000D01*
X79000000Y-64250000D02*
X80750000Y-66000000D01*
X75750000Y-61000000D02*
X79000000Y-64250000D01*
X74525000Y-61000000D02*
X75250000Y-61000000D01*
X73250000Y-62500000D02*
X74525000Y-61225000D01*
X74525000Y-61225000D02*
X74525000Y-61000000D01*
D28*
%TO.N,Net-(D1-A)*%
X70750000Y-49200000D02*
X68050000Y-49200000D01*
X70775000Y-49225000D02*
X70750000Y-49200000D01*
X75500000Y-49225000D02*
X70775000Y-49225000D01*
X68050000Y-49200000D02*
X65500000Y-51750000D01*
%TO.N,Net-(D1-K)*%
X72239344Y-51250000D02*
X70750000Y-51250000D01*
X75437652Y-58460000D02*
X76201000Y-57696652D01*
X76201000Y-55211656D02*
X72239344Y-51250000D01*
X76201000Y-57696652D02*
X76201000Y-55211656D01*
X74525000Y-58460000D02*
X75437652Y-58460000D01*
%TO.N,Net-(D2-K)*%
X74525000Y-59730000D02*
X75499999Y-59730000D01*
X75499999Y-59730000D02*
X77101999Y-58128000D01*
X77101999Y-52876999D02*
X75500000Y-51275000D01*
X77101999Y-58128000D02*
X77101999Y-52876999D01*
D29*
%TO.N,Net-(J1-CC2)*%
X58900000Y-57500000D02*
X60019026Y-57500000D01*
X63500000Y-60980974D02*
X63500000Y-63000000D01*
X60019026Y-57500000D02*
X63500000Y-60980974D01*
%TO.N,Net-(J1-CC1)*%
X60750000Y-56500000D02*
X63500000Y-59250000D01*
X58900000Y-56500000D02*
X60750000Y-56500000D01*
%TO.N,Net-(Q1A-S)*%
X81050000Y-48975000D02*
X81050000Y-51250000D01*
%TO.N,Net-(U2-CSI)*%
X81300000Y-56475000D02*
X81300000Y-54050000D01*
D30*
X81300000Y-54050000D02*
X81250000Y-54000000D01*
D29*
%TO.N,Net-(U2-VDD)*%
X81300000Y-58750000D02*
X81300000Y-60375000D01*
X81550000Y-64000000D02*
X79925000Y-62375000D01*
X79925000Y-62375000D02*
X79925000Y-61750000D01*
X81300000Y-60375000D02*
X79925000Y-61750000D01*
%TO.N,Net-(U3-PROG)*%
X69575000Y-58460000D02*
X68460000Y-58460000D01*
X68460000Y-58460000D02*
X65500000Y-55500000D01*
%TO.N,/Raw Bat -*%
X82000000Y-61750000D02*
X82351000Y-61399000D01*
D30*
X82250000Y-61500000D02*
X82000000Y-61750000D01*
D29*
X82351000Y-61399000D02*
X82351000Y-58750000D01*
%TO.N,GND*%
X69575000Y-59730000D02*
X67480000Y-59730000D01*
X63500000Y-55500000D02*
X62823950Y-55500000D01*
X79450000Y-49000000D02*
X79475000Y-48975000D01*
X68750000Y-56365000D02*
X69575000Y-57190000D01*
X67480000Y-59730000D02*
X67000000Y-59250000D01*
X67116116Y-62366116D02*
X66133884Y-62366116D01*
X78750000Y-49000000D02*
X79450000Y-49000000D01*
X79580692Y-54830692D02*
X79250000Y-54500000D01*
X74305726Y-55480726D02*
X73075000Y-54250000D01*
X58900000Y-52780000D02*
X58800000Y-52680000D01*
X79802682Y-54830692D02*
X79580692Y-54830692D01*
X71175000Y-63500000D02*
X69517768Y-63500000D01*
D30*
X80100000Y-48975000D02*
X79975000Y-48975000D01*
D29*
X62823950Y-55500000D02*
X62036975Y-56286975D01*
X65500000Y-59250000D02*
X67000000Y-59250000D01*
X58800000Y-61320000D02*
X58800000Y-59850000D01*
X58800000Y-59850000D02*
X58900000Y-59750000D01*
X74329778Y-55480726D02*
X74305726Y-55480726D01*
X79475000Y-48975000D02*
X79975000Y-48975000D01*
X79250000Y-54500000D02*
X79250000Y-53750000D01*
X58900000Y-54250000D02*
X58900000Y-52780000D01*
X69517768Y-63500000D02*
X69508884Y-63508884D01*
X66133884Y-62366116D02*
X65500000Y-63000000D01*
%TO.N,/Charge control*%
X80350000Y-56475000D02*
X79679222Y-56475000D01*
X78024000Y-53180222D02*
X79954222Y-51250000D01*
X79679222Y-56475000D02*
X78024000Y-54819778D01*
D30*
X79954222Y-51250000D02*
X80100000Y-51250000D01*
D29*
X78024000Y-54819778D02*
X78024000Y-53180222D01*
%TO.N,/Discharge control*%
X82549999Y-56175001D02*
X82549999Y-51799999D01*
X82250000Y-56475000D02*
X82549999Y-56175001D01*
X82549999Y-51799999D02*
X82000000Y-51250000D01*
%TO.N,/VBUS*%
X62326000Y-64326000D02*
X66924000Y-64326000D01*
X58900000Y-55480000D02*
X58013200Y-55480000D01*
X58013200Y-55480000D02*
X57500000Y-55993200D01*
X72719000Y-56694000D02*
X74029000Y-56694000D01*
X57500000Y-55993200D02*
X57500000Y-58000000D01*
X57500000Y-58000000D02*
X58020000Y-58520000D01*
D27*
X70250000Y-66050000D02*
X69050000Y-66050000D01*
D29*
X59576800Y-58520000D02*
X62000000Y-60943200D01*
X58900000Y-55480000D02*
X61020000Y-55480000D01*
X67125000Y-64125000D02*
X69575000Y-61675000D01*
X63500000Y-52450000D02*
X63500000Y-51750000D01*
X74029000Y-56694000D02*
X74525000Y-57190000D01*
X58900000Y-58520000D02*
X59576800Y-58520000D01*
X71000000Y-54250000D02*
X71000000Y-54975000D01*
X63500000Y-53000000D02*
X63500000Y-51750000D01*
X63500000Y-53056182D02*
X63500000Y-53000000D01*
X62000000Y-64000000D02*
X62326000Y-64326000D01*
X62000000Y-60943200D02*
X62000000Y-64000000D01*
X65099000Y-54049000D02*
X63500000Y-52450000D01*
X70799000Y-54049000D02*
X65099000Y-54049000D01*
X58020000Y-58520000D02*
X58900000Y-58520000D01*
X69575000Y-61675000D02*
X69575000Y-61000000D01*
X71000000Y-54250000D02*
X70799000Y-54049000D01*
D27*
X69050000Y-66050000D02*
X67125000Y-64125000D01*
D29*
X61020000Y-55480000D02*
X63500000Y-53000000D01*
X66924000Y-64326000D02*
X67125000Y-64125000D01*
X71000000Y-54975000D02*
X72719000Y-56694000D01*
D27*
%TO.N,GND*%
X68250000Y-68000000D02*
X67000000Y-68000000D01*
%TD*%
%TA.AperFunction,Conductor*%
%TO.N,BATT+*%
G36*
X82323345Y-65225146D02*
G01*
X82325149Y-65226622D01*
X83017011Y-65918484D01*
X83020438Y-65926757D01*
X83017011Y-65935030D01*
X83014567Y-65936902D01*
X82249787Y-66376352D01*
X82240907Y-66377502D01*
X82238356Y-66376479D01*
X81554217Y-66003392D01*
X81548595Y-65996422D01*
X81548303Y-65995184D01*
X81443634Y-65411263D01*
X81445547Y-65402515D01*
X81452828Y-65397731D01*
X82314557Y-65223427D01*
X82323345Y-65225146D01*
G37*
%TD.AperFunction*%
%TD*%
%TA.AperFunction,Conductor*%
%TO.N,BATT+*%
G36*
X86239314Y-52219634D02*
G01*
X87226218Y-52627438D01*
X87232553Y-52633761D01*
X87232562Y-52633782D01*
X87640364Y-53620684D01*
X87640357Y-53629639D01*
X87635571Y-53635185D01*
X85884280Y-54685960D01*
X85875422Y-54687278D01*
X85869987Y-54684200D01*
X85175799Y-53990012D01*
X85172372Y-53981739D01*
X85174037Y-53975723D01*
X86224815Y-52224426D01*
X86232009Y-52219097D01*
X86239314Y-52219634D01*
G37*
%TD.AperFunction*%
%TD*%
%TA.AperFunction,Conductor*%
%TO.N,/Raw Bat -*%
G36*
X87031724Y-49113621D02*
G01*
X87037184Y-49120719D01*
X87037359Y-49121467D01*
X87230541Y-50087706D01*
X87230541Y-50092294D01*
X87037359Y-51058532D01*
X87032377Y-51065973D01*
X87023592Y-51067711D01*
X87022844Y-51067536D01*
X85257873Y-50592331D01*
X85250775Y-50586871D01*
X85249215Y-50581033D01*
X85249215Y-49598966D01*
X85252642Y-49590693D01*
X85257870Y-49587669D01*
X87022845Y-49112463D01*
X87031724Y-49113621D01*
G37*
%TD.AperFunction*%
%TD*%
%TA.AperFunction,Conductor*%
%TO.N,/VBUS or BATT+*%
G36*
X87238269Y-60257277D02*
G01*
X87238277Y-60257285D01*
X88224042Y-61244037D01*
X88227465Y-61252312D01*
X88226230Y-61257538D01*
X87733234Y-62243532D01*
X87726469Y-62249400D01*
X87722769Y-62250000D01*
X86737231Y-62250000D01*
X86728958Y-62246573D01*
X86726766Y-62243532D01*
X86233769Y-61257538D01*
X86233134Y-61248606D01*
X86235957Y-61244037D01*
X87221723Y-60257285D01*
X87229994Y-60253854D01*
X87238269Y-60257277D01*
G37*
%TD.AperFunction*%
%TD*%
%TA.AperFunction,Conductor*%
%TO.N,BATT+*%
G36*
X73130184Y-61938242D02*
G01*
X73821255Y-62629313D01*
X73824676Y-62637199D01*
X73837307Y-63019179D01*
X73834155Y-63027561D01*
X73832970Y-63028663D01*
X73259057Y-63492810D01*
X73250470Y-63495348D01*
X73242603Y-63491070D01*
X73242106Y-63490409D01*
X72778950Y-62826786D01*
X72777025Y-62818041D01*
X72777610Y-62815926D01*
X73110981Y-61942342D01*
X73117131Y-61935836D01*
X73126082Y-61935584D01*
X73130184Y-61938242D01*
G37*
%TD.AperFunction*%
%TD*%
%TA.AperFunction,Conductor*%
%TO.N,BATT+*%
G36*
X80755648Y-65293575D02*
G01*
X81078840Y-65332538D01*
X81626495Y-65398564D01*
X81634299Y-65402957D01*
X81636711Y-65411580D01*
X81636672Y-65411870D01*
X81551503Y-65995250D01*
X81546917Y-66002942D01*
X81545992Y-66003565D01*
X80868970Y-66414010D01*
X80860118Y-66415369D01*
X80857599Y-66414433D01*
X80057256Y-66007306D01*
X80051436Y-66000501D01*
X80052133Y-65991573D01*
X80054285Y-65988608D01*
X80745976Y-65296917D01*
X80754248Y-65293491D01*
X80755648Y-65293575D01*
G37*
%TD.AperFunction*%
%TD*%
%TA.AperFunction,Conductor*%
%TO.N,Net-(D1-A)*%
G36*
X70210234Y-48650035D02*
G01*
X70742934Y-49191797D01*
X70746291Y-49200099D01*
X70742934Y-49208203D01*
X70210234Y-49749964D01*
X70201990Y-49753461D01*
X70196759Y-49752275D01*
X69481568Y-49403205D01*
X69475636Y-49396497D01*
X69475000Y-49392691D01*
X69475000Y-49007308D01*
X69478427Y-48999035D01*
X69481566Y-48996794D01*
X70196760Y-48647723D01*
X70205697Y-48647174D01*
X70210234Y-48650035D01*
G37*
%TD.AperFunction*%
%TD*%
%TA.AperFunction,Conductor*%
%TO.N,Net-(D1-A)*%
G36*
X71303353Y-48648042D02*
G01*
X72018717Y-49021718D01*
X72024463Y-49028585D01*
X72025000Y-49032088D01*
X72025000Y-49417461D01*
X72021573Y-49425734D01*
X72018135Y-49428115D01*
X71303116Y-49752591D01*
X71294166Y-49752890D01*
X71289939Y-49750140D01*
X70757064Y-49208201D01*
X70753708Y-49199901D01*
X70757064Y-49191798D01*
X71289594Y-48650209D01*
X71297838Y-48646713D01*
X71303353Y-48648042D01*
G37*
%TD.AperFunction*%
%TD*%
%TA.AperFunction,Conductor*%
%TO.N,Net-(D1-A)*%
G36*
X74960234Y-48675035D02*
G01*
X75492934Y-49216797D01*
X75496291Y-49225099D01*
X75492934Y-49233203D01*
X74960234Y-49774964D01*
X74951990Y-49778461D01*
X74946759Y-49777275D01*
X74231568Y-49428205D01*
X74225636Y-49421497D01*
X74225000Y-49417691D01*
X74225000Y-49032308D01*
X74228427Y-49024035D01*
X74231566Y-49021794D01*
X74946760Y-48672723D01*
X74955697Y-48672174D01*
X74960234Y-48675035D01*
G37*
%TD.AperFunction*%
%TD*%
%TA.AperFunction,Conductor*%
%TO.N,Net-(D1-A)*%
G36*
X66355298Y-50623109D02*
G01*
X66626628Y-50894439D01*
X66630055Y-50902712D01*
X66628883Y-50907817D01*
X66104806Y-51988615D01*
X66098112Y-51994564D01*
X66089816Y-51994326D01*
X65505003Y-51753062D01*
X65498662Y-51746739D01*
X65498018Y-51744666D01*
X65353444Y-51059349D01*
X65355089Y-51050549D01*
X65360237Y-51046201D01*
X66342375Y-50620645D01*
X66351327Y-50620502D01*
X66355298Y-50623109D01*
G37*
%TD.AperFunction*%
%TD*%
%TA.AperFunction,Conductor*%
%TO.N,Net-(D1-K)*%
G36*
X71303238Y-50697723D02*
G01*
X72018432Y-51046794D01*
X72024364Y-51053502D01*
X72025000Y-51057308D01*
X72025000Y-51442691D01*
X72021573Y-51450964D01*
X72018432Y-51453205D01*
X71303240Y-51802275D01*
X71294302Y-51802825D01*
X71289765Y-51799964D01*
X70948806Y-51453205D01*
X70757064Y-51258201D01*
X70753708Y-51249901D01*
X70757064Y-51241798D01*
X71289767Y-50700033D01*
X71298009Y-50696538D01*
X71303238Y-50697723D01*
G37*
%TD.AperFunction*%
%TD*%
%TA.AperFunction,Conductor*%
%TO.N,Net-(D1-K)*%
G36*
X75573736Y-58047220D02*
G01*
X75574668Y-58048057D01*
X75843036Y-58316425D01*
X75846463Y-58324698D01*
X75843036Y-58332971D01*
X75840856Y-58334686D01*
X75503263Y-58540620D01*
X75496191Y-58542291D01*
X74533949Y-58461517D01*
X74525992Y-58457410D01*
X74523291Y-58451067D01*
X74511020Y-58332971D01*
X74494251Y-58171592D01*
X74496804Y-58163012D01*
X74504635Y-58158753D01*
X75565145Y-58044697D01*
X75573736Y-58047220D01*
G37*
%TD.AperFunction*%
%TD*%
%TA.AperFunction,Conductor*%
%TO.N,Net-(D2-K)*%
G36*
X75573957Y-59379713D02*
G01*
X75574381Y-59380117D01*
X75842705Y-59648441D01*
X75846132Y-59656714D01*
X75842705Y-59664987D01*
X75840222Y-59666881D01*
X75503426Y-59858704D01*
X75496091Y-59860135D01*
X74533699Y-59731959D01*
X74525951Y-59727470D01*
X74523578Y-59721244D01*
X74502478Y-59441965D01*
X74505272Y-59433458D01*
X74513264Y-59429417D01*
X74513503Y-59429402D01*
X75565525Y-59376705D01*
X75573957Y-59379713D01*
G37*
%TD.AperFunction*%
%TD*%
%TA.AperFunction,Conductor*%
%TO.N,Net-(D2-K)*%
G36*
X76199709Y-51165344D02*
G01*
X76203600Y-51170203D01*
X76596720Y-52084723D01*
X76596839Y-52093677D01*
X76594244Y-52097617D01*
X76322960Y-52368901D01*
X76314687Y-52372328D01*
X76309476Y-52371104D01*
X75271591Y-51854856D01*
X75265710Y-51848103D01*
X75265986Y-51839919D01*
X75496796Y-51280346D01*
X75503119Y-51274004D01*
X75505755Y-51273255D01*
X76190999Y-51163272D01*
X76199709Y-51165344D01*
G37*
%TD.AperFunction*%
%TD*%
%TA.AperFunction,Conductor*%
%TO.N,Net-(J1-CC2)*%
G36*
X59605136Y-57101926D02*
G01*
X59992408Y-57247153D01*
X59998951Y-57253267D01*
X60000000Y-57258108D01*
X60000000Y-57741892D01*
X59996573Y-57750165D01*
X59992408Y-57752847D01*
X59605139Y-57898072D01*
X59596189Y-57897768D01*
X59595232Y-57897279D01*
X59322916Y-57741892D01*
X58916807Y-57510161D01*
X58911321Y-57503085D01*
X58912445Y-57494201D01*
X58916806Y-57489839D01*
X59595233Y-57102719D01*
X59604116Y-57101596D01*
X59605136Y-57101926D01*
G37*
%TD.AperFunction*%
%TD*%
%TA.AperFunction,Conductor*%
%TO.N,Net-(J1-CC2)*%
G36*
X63750630Y-61703427D02*
G01*
X63753071Y-61706999D01*
X64077651Y-62446766D01*
X64077837Y-62455719D01*
X64074955Y-62459988D01*
X63508018Y-62993455D01*
X63499644Y-62996629D01*
X63491982Y-62993455D01*
X62925044Y-62459988D01*
X62921367Y-62451823D01*
X62922348Y-62446766D01*
X63246929Y-61706999D01*
X63253391Y-61700800D01*
X63257643Y-61700000D01*
X63742357Y-61700000D01*
X63750630Y-61703427D01*
G37*
%TD.AperFunction*%
%TD*%
%TA.AperFunction,Conductor*%
%TO.N,Net-(J1-CC1)*%
G36*
X62693176Y-58085771D02*
G01*
X63640307Y-58546005D01*
X63646250Y-58552703D01*
X63646641Y-58558943D01*
X63501982Y-59244661D01*
X63496921Y-59252049D01*
X63494996Y-59253062D01*
X62909790Y-59494489D01*
X62900835Y-59494476D01*
X62895009Y-59489187D01*
X62767591Y-59250707D01*
X62336216Y-58443333D01*
X62335340Y-58434422D01*
X62338261Y-58429549D01*
X62679790Y-58088020D01*
X62688062Y-58084594D01*
X62693176Y-58085771D01*
G37*
%TD.AperFunction*%
%TD*%
%TA.AperFunction,Conductor*%
%TO.N,Net-(J1-CC1)*%
G36*
X59605136Y-56101926D02*
G01*
X59992408Y-56247153D01*
X59998951Y-56253267D01*
X60000000Y-56258108D01*
X60000000Y-56741892D01*
X59996573Y-56750165D01*
X59992408Y-56752847D01*
X59605139Y-56898072D01*
X59596189Y-56897768D01*
X59595232Y-56897279D01*
X59322916Y-56741892D01*
X58916807Y-56510161D01*
X58911321Y-56503085D01*
X58912445Y-56494201D01*
X58916806Y-56489839D01*
X59595233Y-56102719D01*
X59604116Y-56101596D01*
X59605136Y-56101926D01*
G37*
%TD.AperFunction*%
%TD*%
%TA.AperFunction,Conductor*%
%TO.N,Net-(Q1A-S)*%
G36*
X81297801Y-50290927D02*
G01*
X81301156Y-50297908D01*
X81349572Y-50733650D01*
X81348046Y-50740844D01*
X81060102Y-51233708D01*
X81052970Y-51239123D01*
X81044098Y-51237908D01*
X81039898Y-51233708D01*
X80924720Y-51036562D01*
X80751952Y-50740842D01*
X80750427Y-50733652D01*
X80798844Y-50297908D01*
X80803163Y-50290064D01*
X80810472Y-50287500D01*
X81289528Y-50287500D01*
X81297801Y-50290927D01*
G37*
%TD.AperFunction*%
%TD*%
%TA.AperFunction,Conductor*%
%TO.N,Net-(Q1A-S)*%
G36*
X81055902Y-48987091D02*
G01*
X81060102Y-48991291D01*
X81348046Y-49484155D01*
X81349572Y-49491349D01*
X81301156Y-49927092D01*
X81296837Y-49934936D01*
X81289528Y-49937500D01*
X80810472Y-49937500D01*
X80802199Y-49934073D01*
X80798844Y-49927092D01*
X80779477Y-49752794D01*
X80750427Y-49491346D01*
X80751952Y-49484158D01*
X81039898Y-48991290D01*
X81047030Y-48985876D01*
X81055902Y-48987091D01*
G37*
%TD.AperFunction*%
%TD*%
%TA.AperFunction,Conductor*%
%TO.N,Net-(U2-CSI)*%
G36*
X81258047Y-53756572D02*
G01*
X81825311Y-54290347D01*
X81828988Y-54298512D01*
X81828257Y-54302952D01*
X81552837Y-55042384D01*
X81546738Y-55048941D01*
X81541873Y-55050000D01*
X81057202Y-55050000D01*
X81048929Y-55046573D01*
X81046756Y-55043570D01*
X81024886Y-55000222D01*
X80674580Y-54305882D01*
X80673914Y-54296954D01*
X80676976Y-54292123D01*
X81241980Y-53756600D01*
X81250342Y-53753397D01*
X81258047Y-53756572D01*
G37*
%TD.AperFunction*%
%TD*%
%TA.AperFunction,Conductor*%
%TO.N,Net-(U2-CSI)*%
G36*
X81547801Y-55515927D02*
G01*
X81551156Y-55522908D01*
X81599572Y-55958650D01*
X81598046Y-55965844D01*
X81310102Y-56458708D01*
X81302970Y-56464123D01*
X81294098Y-56462908D01*
X81289898Y-56458708D01*
X81174720Y-56261562D01*
X81001952Y-55965842D01*
X81000427Y-55958652D01*
X81048844Y-55522908D01*
X81053163Y-55515064D01*
X81060472Y-55512500D01*
X81539528Y-55512500D01*
X81547801Y-55515927D01*
G37*
%TD.AperFunction*%
%TD*%
%TA.AperFunction,Conductor*%
%TO.N,Net-(U2-VDD)*%
G36*
X81305902Y-58762091D02*
G01*
X81310102Y-58766291D01*
X81598046Y-59259155D01*
X81599572Y-59266349D01*
X81551156Y-59702092D01*
X81546837Y-59709936D01*
X81539528Y-59712500D01*
X81060472Y-59712500D01*
X81052199Y-59709073D01*
X81048844Y-59702092D01*
X81029477Y-59527794D01*
X81000427Y-59266346D01*
X81001952Y-59259158D01*
X81289898Y-58766290D01*
X81297030Y-58760876D01*
X81305902Y-58762091D01*
G37*
%TD.AperFunction*%
%TD*%
%TA.AperFunction,Conductor*%
%TO.N,Net-(U2-VDD)*%
G36*
X80508479Y-61628530D02*
G01*
X80513552Y-61635909D01*
X80513754Y-61637224D01*
X80616673Y-62708156D01*
X80614054Y-62716719D01*
X80613300Y-62717548D01*
X80271509Y-63059339D01*
X80263236Y-63062766D01*
X80255395Y-63059750D01*
X79613980Y-62480642D01*
X79610136Y-62472555D01*
X79611096Y-62467282D01*
X79921888Y-61754805D01*
X79928336Y-61748594D01*
X79930172Y-61748042D01*
X80499674Y-61626899D01*
X80508479Y-61628530D01*
G37*
%TD.AperFunction*%
%TD*%
%TA.AperFunction,Conductor*%
%TO.N,Net-(U2-VDD)*%
G36*
X80743332Y-62836216D02*
G01*
X81789187Y-63395009D01*
X81794869Y-63401930D01*
X81794489Y-63409790D01*
X81553062Y-63994996D01*
X81546739Y-64001337D01*
X81544661Y-64001982D01*
X80858943Y-64146641D01*
X80850141Y-64144996D01*
X80846005Y-64140307D01*
X80385771Y-63193176D01*
X80385237Y-63184237D01*
X80388019Y-63179791D01*
X80729548Y-62838262D01*
X80737820Y-62834836D01*
X80743332Y-62836216D01*
G37*
%TD.AperFunction*%
%TD*%
%TA.AperFunction,Conductor*%
%TO.N,Net-(U2-VDD)*%
G36*
X80738331Y-60594812D02*
G01*
X81079844Y-60936325D01*
X81083271Y-60944598D01*
X81081841Y-60950203D01*
X80517528Y-61984136D01*
X80510556Y-61989756D01*
X80502796Y-61989347D01*
X79930454Y-61753248D01*
X79924113Y-61746925D01*
X79923337Y-61744110D01*
X79820385Y-61033525D01*
X79822590Y-61024846D01*
X79826923Y-61021289D01*
X80725020Y-60592526D01*
X80733960Y-60592055D01*
X80738331Y-60594812D01*
G37*
%TD.AperFunction*%
%TD*%
%TA.AperFunction,Conductor*%
%TO.N,Net-(U3-PROG)*%
G36*
X68752186Y-58160796D02*
G01*
X69537957Y-58446959D01*
X69544558Y-58453010D01*
X69544947Y-58461957D01*
X69538896Y-58468558D01*
X69536478Y-58469377D01*
X68618330Y-58672302D01*
X68612083Y-58671970D01*
X68187993Y-58529648D01*
X68181240Y-58523767D01*
X68180623Y-58514834D01*
X68183440Y-58510285D01*
X68520427Y-58173298D01*
X68528176Y-58169884D01*
X68747671Y-58160103D01*
X68752186Y-58160796D01*
G37*
%TD.AperFunction*%
%TD*%
%TA.AperFunction,Conductor*%
%TO.N,Net-(U3-PROG)*%
G36*
X66099164Y-55255523D02*
G01*
X66104990Y-55260812D01*
X66663782Y-56306665D01*
X66664659Y-56315577D01*
X66661736Y-56320452D01*
X66320210Y-56661978D01*
X66311937Y-56665405D01*
X66306823Y-56664228D01*
X65359692Y-56203994D01*
X65353749Y-56197296D01*
X65353358Y-56191059D01*
X65498018Y-55505336D01*
X65503078Y-55497950D01*
X65504999Y-55496938D01*
X66090212Y-55255510D01*
X66099164Y-55255523D01*
G37*
%TD.AperFunction*%
%TD*%
%TA.AperFunction,Conductor*%
%TO.N,/Raw Bat -*%
G36*
X82546754Y-58736921D02*
G01*
X82550608Y-58745004D01*
X82550608Y-58745006D01*
X82600359Y-59700191D01*
X82597367Y-59708632D01*
X82589284Y-59712484D01*
X82588675Y-59712500D01*
X82110036Y-59712500D01*
X82101763Y-59709073D01*
X82098716Y-59703758D01*
X82015695Y-59386053D01*
X82016047Y-59379022D01*
X82247323Y-58756207D01*
X82253414Y-58749646D01*
X82257675Y-58748598D01*
X82538314Y-58733931D01*
X82546754Y-58736921D01*
G37*
%TD.AperFunction*%
%TD*%
%TA.AperFunction,Conductor*%
%TO.N,/Raw Bat -*%
G36*
X82597459Y-60443612D02*
G01*
X82600886Y-60451885D01*
X82600885Y-60451999D01*
X82587628Y-61815085D01*
X82584121Y-61823324D01*
X82575815Y-61826670D01*
X82574403Y-61826571D01*
X82005659Y-61751744D01*
X81997903Y-61747267D01*
X81997103Y-61746081D01*
X81586171Y-61048262D01*
X81584926Y-61039394D01*
X81587396Y-61034680D01*
X82097500Y-60444235D01*
X82105502Y-60440216D01*
X82106354Y-60440185D01*
X82589186Y-60440185D01*
X82597459Y-60443612D01*
G37*
%TD.AperFunction*%
%TD*%
%TA.AperFunction,Conductor*%
%TO.N,GND*%
G36*
X68752565Y-59430931D02*
G01*
X69356470Y-59650267D01*
X69545721Y-59719003D01*
X69552327Y-59725048D01*
X69552724Y-59733994D01*
X69546679Y-59740600D01*
X69545721Y-59740997D01*
X68752568Y-60029067D01*
X68747282Y-60029698D01*
X68310408Y-59981156D01*
X68302564Y-59976837D01*
X68300000Y-59969528D01*
X68300000Y-59490471D01*
X68303427Y-59482198D01*
X68310406Y-59478843D01*
X68747286Y-59430301D01*
X68752565Y-59430931D01*
G37*
%TD.AperFunction*%
%TD*%
%TA.AperFunction,Conductor*%
%TO.N,GND*%
G36*
X62908015Y-55081289D02*
G01*
X63282733Y-55345564D01*
X63491469Y-55492778D01*
X63496255Y-55500346D01*
X63494514Y-55508749D01*
X63059183Y-56173556D01*
X63051784Y-56178599D01*
X63045877Y-56178305D01*
X62632968Y-56048125D01*
X62628213Y-56045239D01*
X62284993Y-55702019D01*
X62281566Y-55693746D01*
X62284993Y-55685473D01*
X62285028Y-55685438D01*
X62463215Y-55508749D01*
X62893035Y-55082542D01*
X62901322Y-55079151D01*
X62908015Y-55081289D01*
G37*
%TD.AperFunction*%
%TD*%
%TA.AperFunction,Conductor*%
%TO.N,GND*%
G36*
X69247861Y-56508044D02*
G01*
X69470079Y-56696075D01*
X69692762Y-56884499D01*
X69696864Y-56892459D01*
X69696026Y-56897878D01*
X69580168Y-57179849D01*
X69573854Y-57186199D01*
X69564899Y-57186224D01*
X69564863Y-57186209D01*
X68866901Y-56896705D01*
X68860572Y-56890370D01*
X68860577Y-56881415D01*
X68863107Y-56877629D01*
X68886092Y-56854645D01*
X69232033Y-56508703D01*
X69240305Y-56505277D01*
X69247861Y-56508044D01*
G37*
%TD.AperFunction*%
%TD*%
%TA.AperFunction,Conductor*%
%TO.N,GND*%
G36*
X69171564Y-56097389D02*
G01*
X69171960Y-56098027D01*
X69565024Y-56780735D01*
X69622616Y-56880765D01*
X69623774Y-56889645D01*
X69620749Y-56894876D01*
X69279876Y-57235749D01*
X69271603Y-57239176D01*
X69265765Y-57237616D01*
X68659453Y-56888536D01*
X68483031Y-56786962D01*
X68477572Y-56779865D01*
X68478730Y-56770985D01*
X68479115Y-56770362D01*
X68747992Y-56366247D01*
X68751247Y-56362992D01*
X69155344Y-56094128D01*
X69164128Y-56092399D01*
X69171564Y-56097389D01*
G37*
%TD.AperFunction*%
%TD*%
%TA.AperFunction,Conductor*%
%TO.N,GND*%
G36*
X67422360Y-58981166D02*
G01*
X67789274Y-59476898D01*
X67791570Y-59483858D01*
X67791570Y-59964729D01*
X67788143Y-59973002D01*
X67779870Y-59976429D01*
X67776826Y-59976026D01*
X66913000Y-59743234D01*
X66905903Y-59737772D01*
X66904564Y-59729678D01*
X66998060Y-59254771D01*
X67003018Y-59247321D01*
X67406468Y-58978391D01*
X67415251Y-58976654D01*
X67422360Y-58981166D01*
G37*
%TD.AperFunction*%
%TD*%
%TA.AperFunction,Conductor*%
%TO.N,GND*%
G36*
X67015179Y-61880314D02*
G01*
X67020834Y-61887258D01*
X67021096Y-61888310D01*
X67115866Y-62360642D01*
X67114134Y-62369428D01*
X67114121Y-62369448D01*
X66843772Y-62773713D01*
X66836324Y-62778685D01*
X66829360Y-62777929D01*
X66306914Y-62549548D01*
X66303327Y-62547101D01*
X65965198Y-62208972D01*
X65961771Y-62200699D01*
X65965198Y-62192426D01*
X65970114Y-62189491D01*
X67006273Y-61879403D01*
X67015179Y-61880314D01*
G37*
%TD.AperFunction*%
%TD*%
%TA.AperFunction,Conductor*%
%TO.N,GND*%
G36*
X79036969Y-48591578D02*
G01*
X79037724Y-48592128D01*
X79297692Y-48797803D01*
X79298706Y-48798706D01*
X79639494Y-49139494D01*
X79642921Y-49147767D01*
X79639494Y-49156040D01*
X79635779Y-49158543D01*
X79036677Y-49411973D01*
X79027723Y-49412040D01*
X79022404Y-49407716D01*
X78853524Y-49156040D01*
X78753660Y-49007215D01*
X78751895Y-48998436D01*
X78753647Y-48994195D01*
X79020740Y-48594799D01*
X79028187Y-48589828D01*
X79036969Y-48591578D01*
G37*
%TD.AperFunction*%
%TD*%
%TA.AperFunction,Conductor*%
%TO.N,GND*%
G36*
X79502257Y-54159856D02*
G01*
X79714302Y-54253409D01*
X80067737Y-54409341D01*
X80073923Y-54415815D01*
X80073718Y-54424768D01*
X80072749Y-54426534D01*
X79805382Y-54827641D01*
X79797942Y-54832625D01*
X79797907Y-54832632D01*
X79321759Y-54926372D01*
X79312980Y-54924607D01*
X79308658Y-54919292D01*
X79006535Y-54174961D01*
X79006599Y-54166007D01*
X79012976Y-54159720D01*
X79017376Y-54158861D01*
X79497535Y-54158861D01*
X79502257Y-54159856D01*
G37*
%TD.AperFunction*%
%TD*%
%TA.AperFunction,Conductor*%
%TO.N,GND*%
G36*
X73661751Y-54010665D02*
G01*
X73667528Y-54015863D01*
X73910681Y-54461368D01*
X74231841Y-55049797D01*
X74232796Y-55058699D01*
X74229844Y-55063674D01*
X73888331Y-55405187D01*
X73880058Y-55408614D01*
X73875018Y-55407472D01*
X73624455Y-55287850D01*
X72976923Y-54978710D01*
X72970934Y-54972054D01*
X72970385Y-54966474D01*
X73073337Y-54255889D01*
X73077915Y-54248193D01*
X73080450Y-54246752D01*
X73652798Y-54010652D01*
X73661751Y-54010665D01*
G37*
%TD.AperFunction*%
%TD*%
%TA.AperFunction,Conductor*%
%TO.N,GND*%
G36*
X73801921Y-54619919D02*
G01*
X74596441Y-55058847D01*
X74602025Y-55065847D01*
X74601024Y-55074746D01*
X74600524Y-55075569D01*
X74331787Y-55479475D01*
X74328527Y-55482735D01*
X73924251Y-55751718D01*
X73915465Y-55753448D01*
X73908029Y-55748458D01*
X73907736Y-55747995D01*
X73503954Y-55074746D01*
X73445358Y-54977047D01*
X73444043Y-54968190D01*
X73447118Y-54962759D01*
X73787991Y-54621886D01*
X73796263Y-54618460D01*
X73801921Y-54619919D01*
G37*
%TD.AperFunction*%
%TD*%
%TA.AperFunction,Conductor*%
%TO.N,GND*%
G36*
X70623971Y-62919021D02*
G01*
X71168342Y-63491941D01*
X71171556Y-63500299D01*
X71168342Y-63508059D01*
X70623971Y-64080978D01*
X70615788Y-64084615D01*
X70609880Y-64083187D01*
X70006091Y-63753327D01*
X70000473Y-63746353D01*
X70000000Y-63743059D01*
X70000000Y-63256940D01*
X70003427Y-63248667D01*
X70006089Y-63246673D01*
X70609882Y-62916811D01*
X70618783Y-62915853D01*
X70623971Y-62919021D01*
G37*
%TD.AperFunction*%
%TD*%
%TA.AperFunction,Conductor*%
%TO.N,GND*%
G36*
X69618400Y-63021595D02*
G01*
X70490515Y-63247728D01*
X70497662Y-63253120D01*
X70499277Y-63259052D01*
X70499277Y-63741119D01*
X70495850Y-63749392D01*
X70490723Y-63752388D01*
X69618563Y-63995889D01*
X69609673Y-63994813D01*
X69604148Y-63987766D01*
X69603951Y-63986946D01*
X69508347Y-63511188D01*
X69508347Y-63506579D01*
X69559907Y-63250000D01*
X69603992Y-63030613D01*
X69608982Y-63023179D01*
X69617768Y-63021449D01*
X69618400Y-63021595D01*
G37*
%TD.AperFunction*%
%TD*%
%TA.AperFunction,Conductor*%
%TO.N,GND*%
G36*
X62566851Y-55416225D02*
G01*
X62907724Y-55757098D01*
X62911151Y-55765371D01*
X62909591Y-55771209D01*
X62458938Y-56553942D01*
X62451840Y-56559402D01*
X62442960Y-56558244D01*
X62442317Y-56557845D01*
X62038225Y-56288984D01*
X62034965Y-56285724D01*
X61766104Y-55881632D01*
X61764374Y-55872846D01*
X61769364Y-55865410D01*
X61769980Y-55865027D01*
X62552742Y-55414357D01*
X62561620Y-55413200D01*
X62566851Y-55416225D01*
G37*
%TD.AperFunction*%
%TD*%
%TA.AperFunction,Conductor*%
%TO.N,GND*%
G36*
X66052704Y-58654291D02*
G01*
X66693812Y-58996695D01*
X66699495Y-59003615D01*
X66700000Y-59007015D01*
X66700000Y-59492984D01*
X66696573Y-59501257D01*
X66693812Y-59503304D01*
X66052706Y-59845707D01*
X66043794Y-59846582D01*
X66038538Y-59843259D01*
X65506159Y-59257872D01*
X65503128Y-59249446D01*
X65506159Y-59242128D01*
X65723074Y-59003615D01*
X66038540Y-58656738D01*
X66046640Y-58652925D01*
X66052704Y-58654291D01*
G37*
%TD.AperFunction*%
%TD*%
%TA.AperFunction,Conductor*%
%TO.N,GND*%
G36*
X66899281Y-58764010D02*
G01*
X66904741Y-58771108D01*
X66904914Y-58771845D01*
X67000536Y-59247695D01*
X67000536Y-59252305D01*
X66904914Y-59728154D01*
X66899924Y-59735590D01*
X66891138Y-59737320D01*
X66890401Y-59737147D01*
X66018265Y-59502331D01*
X66011167Y-59496871D01*
X66009607Y-59491033D01*
X66009607Y-59008966D01*
X66013034Y-59000693D01*
X66018262Y-58997669D01*
X66890402Y-58762852D01*
X66899281Y-58764010D01*
G37*
%TD.AperFunction*%
%TD*%
%TA.AperFunction,Conductor*%
%TO.N,GND*%
G36*
X58907730Y-59757781D02*
G01*
X58907750Y-59757803D01*
X59247801Y-60144046D01*
X59250695Y-60152520D01*
X59249452Y-60157073D01*
X59053251Y-60543596D01*
X59046450Y-60549422D01*
X59042818Y-60550000D01*
X58559065Y-60550000D01*
X58550792Y-60546573D01*
X58547736Y-60541222D01*
X58448621Y-60156936D01*
X58449873Y-60148069D01*
X58452195Y-60145254D01*
X58891218Y-59756770D01*
X58899681Y-59753856D01*
X58907730Y-59757781D01*
G37*
%TD.AperFunction*%
%TD*%
%TA.AperFunction,Conductor*%
%TO.N,GND*%
G36*
X59050847Y-60323427D02*
G01*
X59053161Y-60326719D01*
X59296381Y-60843644D01*
X59296802Y-60852589D01*
X59293804Y-60857153D01*
X58808010Y-61313475D01*
X58799634Y-61316641D01*
X58791990Y-61313475D01*
X58306195Y-60857153D01*
X58302511Y-60848991D01*
X58303618Y-60843644D01*
X58546839Y-60326719D01*
X58553462Y-60320692D01*
X58557426Y-60320000D01*
X59042574Y-60320000D01*
X59050847Y-60323427D01*
G37*
%TD.AperFunction*%
%TD*%
%TA.AperFunction,Conductor*%
%TO.N,GND*%
G36*
X79802796Y-48678007D02*
G01*
X79804255Y-48679241D01*
X80092685Y-48966713D01*
X80096126Y-48974981D01*
X80092713Y-48983259D01*
X80092685Y-48983287D01*
X79804255Y-49270758D01*
X79795977Y-49274171D01*
X79794073Y-49274012D01*
X79509777Y-49226629D01*
X79502179Y-49221888D01*
X79500000Y-49215088D01*
X79500000Y-48734911D01*
X79503427Y-48726638D01*
X79509775Y-48723370D01*
X79794075Y-48675987D01*
X79802796Y-48678007D01*
G37*
%TD.AperFunction*%
%TD*%
%TA.AperFunction,Conductor*%
%TO.N,GND*%
G36*
X79257876Y-53757703D02*
G01*
X79259815Y-53759176D01*
X79826205Y-54291195D01*
X79829889Y-54299357D01*
X79829656Y-54302075D01*
X79758173Y-54650476D01*
X79754985Y-54656397D01*
X79412183Y-54999199D01*
X79403910Y-55002626D01*
X79395642Y-54999204D01*
X78838860Y-54443037D01*
X78835430Y-54434766D01*
X78837127Y-54428691D01*
X79241804Y-53761636D01*
X79249025Y-53756342D01*
X79257876Y-53757703D01*
G37*
%TD.AperFunction*%
%TD*%
%TA.AperFunction,Conductor*%
%TO.N,GND*%
G36*
X59150165Y-53453427D02*
G01*
X59152847Y-53457592D01*
X59297358Y-53842955D01*
X59297054Y-53851904D01*
X59294686Y-53855326D01*
X58908283Y-54242696D01*
X58900015Y-54246133D01*
X58891737Y-54242716D01*
X58891717Y-54242696D01*
X58505313Y-53855326D01*
X58501896Y-53847048D01*
X58502640Y-53842959D01*
X58647153Y-53457592D01*
X58653267Y-53451049D01*
X58658108Y-53450000D01*
X59141892Y-53450000D01*
X59150165Y-53453427D01*
G37*
%TD.AperFunction*%
%TD*%
%TA.AperFunction,Conductor*%
%TO.N,GND*%
G36*
X58808510Y-52685995D02*
G01*
X59341082Y-53123781D01*
X59345297Y-53131682D01*
X59344666Y-53136766D01*
X59152778Y-53672247D01*
X59146761Y-53678879D01*
X59141764Y-53680000D01*
X58656665Y-53680000D01*
X58648392Y-53676573D01*
X58646601Y-53674267D01*
X58575093Y-53553662D01*
X58350804Y-53175379D01*
X58349533Y-53166517D01*
X58352290Y-53161458D01*
X58792507Y-52687073D01*
X58800644Y-52683342D01*
X58808510Y-52685995D01*
G37*
%TD.AperFunction*%
%TD*%
%TA.AperFunction,Conductor*%
%TO.N,GND*%
G36*
X66634175Y-62120393D02*
G01*
X66638901Y-62127998D01*
X66639057Y-62129901D01*
X66639057Y-62612290D01*
X66636797Y-62619202D01*
X66106241Y-63343820D01*
X66098589Y-63348471D01*
X66090884Y-63347001D01*
X65849635Y-63205565D01*
X65505017Y-63003527D01*
X65499613Y-62996387D01*
X65499241Y-62993033D01*
X65522933Y-62309577D01*
X65526644Y-62301430D01*
X65532721Y-62298441D01*
X66625455Y-62118357D01*
X66634175Y-62120393D01*
G37*
%TD.AperFunction*%
%TD*%
%TA.AperFunction,Conductor*%
%TO.N,/Charge control*%
G36*
X80052796Y-56178007D02*
G01*
X80054255Y-56179241D01*
X80342685Y-56466713D01*
X80346126Y-56474981D01*
X80342713Y-56483259D01*
X80342685Y-56483287D01*
X80054255Y-56770758D01*
X80045977Y-56774171D01*
X80044073Y-56774012D01*
X79759777Y-56726629D01*
X79752179Y-56721888D01*
X79750000Y-56715088D01*
X79750000Y-56234911D01*
X79753427Y-56226638D01*
X79759775Y-56223370D01*
X80044075Y-56175987D01*
X80052796Y-56178007D01*
G37*
%TD.AperFunction*%
%TD*%
%TA.AperFunction,Conductor*%
%TO.N,/Charge control*%
G36*
X79807099Y-51099224D02*
G01*
X80090385Y-51244017D01*
X80096191Y-51250833D01*
X80095526Y-51259663D01*
X79819569Y-51812079D01*
X79812806Y-51817948D01*
X79803873Y-51817317D01*
X79802951Y-51816803D01*
X79765802Y-51793845D01*
X79763680Y-51792165D01*
X79419887Y-51448372D01*
X79416460Y-51440099D01*
X79419887Y-51431826D01*
X79420385Y-51431356D01*
X79794028Y-51100877D01*
X79802492Y-51097965D01*
X79807099Y-51099224D01*
G37*
%TD.AperFunction*%
%TD*%
%TA.AperFunction,Conductor*%
%TO.N,/Discharge control*%
G36*
X82792722Y-55665922D02*
G01*
X82796149Y-55674195D01*
X82795691Y-55677436D01*
X82552920Y-56519424D01*
X82547335Y-56526424D01*
X82539622Y-56527701D01*
X82258589Y-56477533D01*
X82251047Y-56472706D01*
X82249019Y-56467330D01*
X82175493Y-55817463D01*
X82177968Y-55808860D01*
X82178040Y-55808771D01*
X82296491Y-55666703D01*
X82304421Y-55662543D01*
X82305477Y-55662495D01*
X82784449Y-55662495D01*
X82792722Y-55665922D01*
G37*
%TD.AperFunction*%
%TD*%
%TA.AperFunction,Conductor*%
%TO.N,/Discharge control*%
G36*
X82301076Y-51128998D02*
G01*
X82305500Y-51132237D01*
X82536127Y-51404796D01*
X82681954Y-51577137D01*
X82684682Y-51585666D01*
X82681295Y-51592967D01*
X82340770Y-51933492D01*
X82332497Y-51936919D01*
X82328226Y-51936112D01*
X82224090Y-51895284D01*
X82217639Y-51889074D01*
X82217292Y-51888179D01*
X82002847Y-51259708D01*
X82003418Y-51250773D01*
X82009470Y-51245111D01*
X82292121Y-51128973D01*
X82301076Y-51128998D01*
G37*
%TD.AperFunction*%
%TD*%
%TA.AperFunction,Conductor*%
%TO.N,/VBUS*%
G36*
X58205183Y-55179512D02*
G01*
X58879194Y-55470021D01*
X58885435Y-55476441D01*
X58885307Y-55485395D01*
X58880371Y-55490921D01*
X58205178Y-55877038D01*
X58196295Y-55878170D01*
X58194562Y-55877548D01*
X58041170Y-55808409D01*
X58037705Y-55806015D01*
X57696792Y-55465102D01*
X57693365Y-55456829D01*
X57696792Y-55448556D01*
X57699515Y-55446529D01*
X58195022Y-55179955D01*
X58203929Y-55179055D01*
X58205183Y-55179512D01*
G37*
%TD.AperFunction*%
%TD*%
%TA.AperFunction,Conductor*%
%TO.N,/VBUS*%
G36*
X59603448Y-58321404D02*
G01*
X59604598Y-58322133D01*
X60048441Y-58641229D01*
X60053157Y-58648840D01*
X60051110Y-58657558D01*
X60049883Y-58659001D01*
X59709965Y-58998919D01*
X59701692Y-59002346D01*
X59700577Y-59002293D01*
X58852874Y-58921171D01*
X58844965Y-58916971D01*
X58842342Y-58908409D01*
X58842408Y-58907859D01*
X58898198Y-58526766D01*
X58902787Y-58519079D01*
X58906552Y-58517215D01*
X59594553Y-58320385D01*
X59603448Y-58321404D01*
G37*
%TD.AperFunction*%
%TD*%
%TA.AperFunction,Conductor*%
%TO.N,/VBUS*%
G36*
X59605136Y-55081926D02*
G01*
X59992408Y-55227153D01*
X59998951Y-55233267D01*
X60000000Y-55238108D01*
X60000000Y-55721892D01*
X59996573Y-55730165D01*
X59992408Y-55732847D01*
X59605139Y-55878072D01*
X59596189Y-55877768D01*
X59595232Y-55877279D01*
X59322916Y-55721892D01*
X58916807Y-55490161D01*
X58911321Y-55483085D01*
X58912445Y-55474201D01*
X58916806Y-55469839D01*
X59595233Y-55082719D01*
X59604116Y-55081596D01*
X59605136Y-55081926D01*
G37*
%TD.AperFunction*%
%TD*%
%TA.AperFunction,Conductor*%
%TO.N,/VBUS*%
G36*
X63508717Y-51756835D02*
G01*
X64074742Y-52289807D01*
X64078416Y-52297972D01*
X64077270Y-52303384D01*
X63648563Y-53197239D01*
X63641896Y-53203216D01*
X63632954Y-53202728D01*
X63629741Y-53200452D01*
X63288719Y-52859430D01*
X63287206Y-52857569D01*
X62924413Y-52303886D01*
X62922745Y-52295088D01*
X62926189Y-52288946D01*
X63492677Y-51756836D01*
X63492687Y-51756825D01*
X63501063Y-51753660D01*
X63508717Y-51756835D01*
G37*
%TD.AperFunction*%
%TD*%
%TA.AperFunction,Conductor*%
%TO.N,/VBUS*%
G36*
X64094997Y-51645992D02*
G01*
X64099829Y-51653531D01*
X64100013Y-51655583D01*
X64101035Y-52692633D01*
X64097616Y-52700910D01*
X63755625Y-53042901D01*
X63747352Y-53046328D01*
X63739216Y-53043035D01*
X63126780Y-52450299D01*
X63123220Y-52442085D01*
X63124645Y-52436295D01*
X63496608Y-51754215D01*
X63503577Y-51748595D01*
X63504812Y-51748303D01*
X64086251Y-51644079D01*
X64094997Y-51645992D01*
G37*
%TD.AperFunction*%
%TD*%
%TA.AperFunction,Conductor*%
%TO.N,/VBUS*%
G36*
X70524950Y-53575861D02*
G01*
X70529197Y-53579548D01*
X70994852Y-54241263D01*
X70996811Y-54250001D01*
X70992857Y-54256914D01*
X70423853Y-54740084D01*
X70415329Y-54742827D01*
X70409227Y-54740500D01*
X70243929Y-54615585D01*
X69829646Y-54302510D01*
X69825112Y-54294788D01*
X69825000Y-54293176D01*
X69825000Y-53807509D01*
X69828427Y-53799236D01*
X69833094Y-53796378D01*
X70516025Y-53575150D01*
X70524950Y-53575861D01*
G37*
%TD.AperFunction*%
%TD*%
%TA.AperFunction,Conductor*%
%TO.N,/VBUS*%
G36*
X58205039Y-58122881D02*
G01*
X58880274Y-58509022D01*
X58885755Y-58516104D01*
X58884623Y-58524987D01*
X58879056Y-58529941D01*
X58205204Y-58817342D01*
X58196250Y-58817436D01*
X58195029Y-58816861D01*
X57701424Y-58548690D01*
X57695790Y-58541729D01*
X57696728Y-58532824D01*
X57698733Y-58530139D01*
X58039613Y-58189259D01*
X58043293Y-58186773D01*
X58194653Y-58122277D01*
X58203606Y-58122188D01*
X58205039Y-58122881D01*
G37*
%TD.AperFunction*%
%TD*%
%TA.AperFunction,Conductor*%
%TO.N,/VBUS*%
G36*
X69583258Y-61007285D02*
G01*
X69818034Y-61242844D01*
X69870758Y-61295744D01*
X69874171Y-61304022D01*
X69874012Y-61305926D01*
X69826630Y-61590223D01*
X69821890Y-61597821D01*
X69815089Y-61600000D01*
X69334911Y-61600000D01*
X69326638Y-61596573D01*
X69323370Y-61590223D01*
X69275987Y-61305924D01*
X69278007Y-61297203D01*
X69279236Y-61295749D01*
X69566714Y-61007313D01*
X69574981Y-61003873D01*
X69583258Y-61007285D01*
G37*
%TD.AperFunction*%
%TD*%
%TA.AperFunction,Conductor*%
%TO.N,/VBUS*%
G36*
X71582601Y-54151778D02*
G01*
X71587389Y-54159345D01*
X71587561Y-54161289D01*
X71592179Y-55208771D01*
X71588789Y-55217060D01*
X71588752Y-55217096D01*
X71246889Y-55558959D01*
X71238616Y-55562386D01*
X71230375Y-55558991D01*
X70642745Y-54975851D01*
X70639286Y-54967591D01*
X70640533Y-54962290D01*
X70996645Y-54254554D01*
X71003424Y-54248706D01*
X71005092Y-54248288D01*
X71573866Y-54149813D01*
X71582601Y-54151778D01*
G37*
%TD.AperFunction*%
%TD*%
M02*
